<svg width="480" height="331" viewBox="0 0 480 331" fill="none" xmlns="http://www.w3.org/2000/svg">
<g clip-path="url(#clip0)">
<path opacity="0.1" d="M148.211 16.723C164.496 2.0489 190.062 -0.939107 213.33 0.228668C286.418 3.89823 352.394 39.5382 409.462 79.8535C430.122 94.4486 450.462 110.191 463.884 130.276C491.187 171.189 483.086 227.87 445.127 261.574C432.212 273.044 416.554 281.833 400.48 289.629C371.903 303.485 341.073 314.606 308.632 317.772C285.5 320.029 262.103 318.188 239.087 315.046C174.84 306.244 111.777 286.787 58.9165 253.482C35.7227 238.879 13.8707 220.722 4.31564 197.084C-5.23941 173.446 0.875826 143.52 24.5474 129.536C34.3393 123.751 46.0421 121.141 57.504 118.685C74.3749 115.078 91.5117 111.516 106.737 104.177C122.462 96.5972 141.077 81.9356 137.966 65.1545C134.626 47.1641 131.946 31.3513 148.211 16.723Z" fill="#F7F7F7"/>
<path d="M106.643 186.1C106.643 186.1 110.951 183.012 115.408 184.92C115.408 184.92 114.162 187.571 108.608 187.538L106.643 186.1Z" fill="#A0B3F4"/>
<path d="M106.107 186.279C106.107 186.279 104.956 191.453 108.462 194.811C108.462 194.811 110.407 192.621 108.196 187.526L106.107 186.279Z" fill="#A0B3F4"/>
<path d="M100.411 181.57C100.411 181.57 100.569 177.203 110.456 178.271C110.456 178.271 110.61 181.08 107.212 182.543C103.814 184.006 102.185 182.954 100.411 181.57Z" fill="#A0B3F4"/>
<path d="M99.8004 181.562C99.8004 181.562 95.6917 183.058 99.7547 192.143C99.7547 192.143 102.472 191.424 102.816 187.738C103.161 184.051 101.657 182.834 99.8004 181.562Z" fill="#A0B3F4"/>
<path d="M93.9968 175.599C93.9968 175.599 93.1659 168.451 103.236 168.8C103.236 168.8 104.196 175.262 95.8372 177.253L93.9968 175.599Z" fill="#A0B3F4"/>
<path d="M87.0465 167.761C87.0465 167.761 88.1142 159.586 98.2633 161.619C98.2633 161.619 98.5707 168.642 88.7747 169.635L87.0465 167.761Z" fill="#A0B3F4"/>
<path d="M81.8743 159.578C81.8743 159.578 83.8767 151.562 93.922 153.565C93.922 153.565 91.8448 160.775 82.593 161.016L81.8743 159.578Z" fill="#A0B3F4"/>
<path d="M76.9514 151.586C76.9514 151.586 78.8915 143.275 88.5836 145.386C88.5836 145.386 85.6756 153.311 77.6286 152.962L76.9514 151.586Z" fill="#A0B3F4"/>
<path d="M73.6819 143.94C73.6819 143.94 75.0321 133.829 84.0678 135.707C84.0678 135.707 81.8161 144.945 74.3881 145.374L73.6819 143.94Z" fill="#A0B3F4"/>
<path d="M70.537 134.668C70.537 134.668 72.2279 124.466 81.4007 127.063C81.4007 127.063 78.2102 136.767 71.2225 136.044L70.537 134.668Z" fill="#A0B3F4"/>
<path d="M68.4764 126.02C68.4764 126.02 71.3845 115.772 78.4137 115.776C78.4137 115.776 75.4433 126.581 69.1411 128.027L68.4764 126.02Z" fill="#A0B3F4"/>
<path d="M67.0557 117.534C67.0557 117.534 70.1839 105.208 75.9252 105.931C75.9252 105.931 73.794 115.34 67.3298 119.425L67.0557 117.534Z" fill="#A0B3F4"/>
<path d="M66.0461 107.385C66.0461 107.385 69.0248 97.1041 74.6415 96.4807C74.6415 96.4807 72.7305 106.558 66.2705 110.02L66.0461 107.385Z" fill="#A0B3F4"/>
<path d="M64.9993 97.9436C64.9993 97.9436 68.813 87.6165 72.527 87.2424C72.527 87.2424 71.0854 97.3202 65.4355 99.5976L64.9993 97.9436Z" fill="#A0B3F4"/>
<path d="M64.1974 89.1416C64.1974 89.1416 66.3577 77.9999 70.0385 76.9443C70.0385 76.9443 69.8765 85.9915 64.6004 89.9519L64.1974 89.1416Z" fill="#A0B3F4"/>
<path d="M62.3571 77.655C62.3571 77.655 64.7376 68.7534 67.6955 67.2947C67.6955 67.2947 67.4961 77.6841 63.1257 79.762L62.3571 77.655Z" fill="#A0B3F4"/>
<path d="M60.9031 70.1164L59.7606 54.6237C59.7606 54.6237 65.826 66.1186 61.4224 72.8385L60.9031 70.1164Z" fill="#A0B3F4"/>
<path d="M55.9594 54.8646C55.9594 54.8646 51.4768 43.6897 50.4797 43.0955C50.4797 43.0955 58.7054 50.1603 58.29 59.6272L55.9594 54.8646Z" fill="#A0B3F4"/>
<path d="M93.7226 175.557C93.7226 175.557 86.5563 174.896 87.1587 184.962C87.1587 184.962 93.6395 185.764 95.4217 177.352L93.7226 175.557Z" fill="#A0B3F4"/>
<path d="M86.7017 167.503C86.7017 167.503 78.4677 167.79 79.5312 178.075C79.5312 178.075 86.4898 179.048 88.405 169.386L86.7017 167.503Z" fill="#A0B3F4"/>
<path d="M81.8203 160.251C81.8203 160.251 74.2095 157.031 69.7726 166.265C69.7726 166.265 76.7894 168.92 82.5349 161.693L81.8203 160.251Z" fill="#A0B3F4"/>
<path d="M76.7852 151.67C76.7852 151.67 68.9916 148.229 64.8331 157.247C64.8331 157.247 72.9133 159.686 77.4707 153.041L76.7852 151.67Z" fill="#A0B3F4"/>
<path d="M73.7858 144.152C73.7858 144.152 66.15 137.394 60.5458 144.742C60.5458 144.742 68.2937 150.244 74.1846 145.706L73.7858 144.152Z" fill="#A0B3F4"/>
<path d="M70.9441 134.411C70.9441 134.411 63.2585 127.495 57.7125 135.242C57.7125 135.242 66.258 140.831 71.2682 135.902L70.9441 134.411Z" fill="#A0B3F4"/>
<path d="M69.2243 125.692C69.2243 125.692 63.1714 116.923 56.5244 119.184C56.5244 119.184 62.8141 128.476 69.2409 127.807L69.2243 125.692Z" fill="#A0B3F4"/>
<path d="M67.226 117.472C67.226 117.472 61.0319 106.367 55.6727 108.541C55.6727 108.541 60.1511 117.085 67.4421 119.367L67.226 117.472Z" fill="#A0B3F4"/>
<path d="M66.4159 106.791C66.4159 106.791 60.1594 98.1057 54.6632 99.4064C54.6632 99.4064 59.8437 108.258 67.0889 109.351L66.4159 106.791Z" fill="#A0B3F4"/>
<path d="M65.6183 97.7191C65.6183 97.7191 60.6538 87.8948 56.9232 87.9488C56.9232 87.9488 59.503 97.798 65.3731 99.4105L65.6183 97.7191Z" fill="#A0B3F4"/>
<path d="M64.3719 88.9172C64.3719 88.9172 58.8882 78.9849 55.0579 79.1096C55.0579 79.1096 57.9992 87.6705 64.2349 89.8149L64.3719 88.9172Z" fill="#A0B3F4"/>
<path d="M63.1962 78.2284C63.1962 78.2284 59.0626 69.9917 55.8721 69.1647C55.8721 69.1647 58.1694 79.3048 62.8597 80.4684L63.1962 78.2284Z" fill="#A0B3F4"/>
<path d="M60.4378 69.8421L51.4269 57.1919C51.4269 57.1919 54.0982 69.9169 61.7755 72.2691L60.4378 69.8421Z" fill="#A0B3F4"/>
<path d="M54.0525 55.9826C54.0525 55.9826 43.9117 49.5286 43.4962 48.4357C43.4962 48.4357 48.8969 57.8194 58.3107 59.1493L54.0525 55.9826Z" fill="#A0B3F4"/>
<path d="M53.3421 52.9323C53.3421 52.9323 41.5603 42.4389 38.6606 42.5636C38.6606 42.5636 48.0495 42.6301 53.6163 52.3422L53.3421 52.9323Z" fill="#A0B3F4"/>
<path d="M63.1464 79.8908L62.731 79.9614C59.9559 63.3175 56.462 53.5555 52.8976 52.4667L53.0181 52.0511C56.7902 53.1981 60.3048 62.8188 63.1464 79.8908Z" fill="#444053"/>
<path d="M67.8201 119.736L67.1969 119.811C67.0058 118.257 66.8396 116.661 66.7108 115.074C65.585 101.256 64.1725 88.5805 62.5939 79.097L62.9387 78.6357C64.5215 88.1359 66.2082 101.185 67.3382 115.024C67.4669 116.603 67.629 118.186 67.8201 119.736Z" fill="#444053"/>
<path d="M118.62 193.614C118.508 193.568 107.307 189.072 95.4259 177.776C88.4678 171.165 82.6011 163.492 78.044 155.044C72.3483 144.484 68.6219 131.377 67.0474 118.569L67.7121 118.851C71.2433 147.601 85.1272 166.817 95.9618 177.145C107.727 188.34 118.811 192.791 118.915 192.833L118.62 193.614Z" fill="#444053"/>
<g opacity="0.7">
<path opacity="0.7" d="M124.025 159.769C124.025 159.769 129.055 158.107 132.749 161.253C132.749 161.253 130.767 163.414 125.474 161.726L124.025 159.769Z" fill="#A0B3F4"/>
<path opacity="0.7" d="M123.46 159.777C123.46 159.777 120.826 164.378 123.173 168.621C123.173 168.621 125.666 167.112 125.088 161.589L123.46 159.777Z" fill="#A0B3F4"/>
<path opacity="0.7" d="M119.417 153.589C119.417 153.589 120.871 149.467 129.99 153.427C129.99 153.427 129.305 156.158 125.62 156.54C121.935 156.922 120.705 155.43 119.417 153.589Z" fill="#A0B3F4"/>
<path opacity="0.7" d="M118.84 153.402C118.84 153.402 114.478 153.61 115.649 163.489C115.649 163.489 118.462 163.613 119.887 160.193C121.312 156.773 120.236 155.165 118.84 153.402Z" fill="#A0B3F4"/>
<path opacity="0.7" d="M115.076 145.968C115.076 145.968 116.401 138.903 125.915 142.227C125.915 142.227 124.914 148.681 116.339 148.095L115.076 145.968Z" fill="#A0B3F4"/>
<path opacity="0.7" d="M110.772 136.409C110.772 136.409 114.22 128.929 123.293 133.883C123.293 133.883 121.499 140.677 111.848 138.712L110.772 136.409Z" fill="#A0B3F4"/>
<path opacity="0.7" d="M108.263 127.08C108.263 127.08 112.563 120.015 121.557 124.923C121.557 124.923 117.402 131.181 108.525 128.663L108.263 127.08Z" fill="#A0B3F4"/>
<path opacity="0.7" d="M105.941 117.983C105.941 117.983 110.261 110.635 118.898 115.527C118.898 115.527 113.767 122.226 106.19 119.5L105.941 117.983Z" fill="#A0B3F4"/>
<path opacity="0.7" d="M105.093 109.709C105.093 109.709 109.389 100.458 117.465 104.946C117.465 104.946 112.567 113.091 105.351 111.292L105.093 109.709Z" fill="#A0B3F4"/>
<path opacity="0.7" d="M104.852 99.9216C104.852 99.9216 109.501 90.6833 117.481 95.8947C117.481 95.8947 111.553 104.206 105.097 101.438L104.852 99.9216Z" fill="#A0B3F4"/>
<path opacity="0.7" d="M105.463 91.0407C105.463 91.0407 111.279 82.1224 117.992 84.2169C117.992 84.2169 111.939 93.663 105.496 93.156L105.463 91.0407Z" fill="#A0B3F4"/>
<path opacity="0.7" d="M106.643 82.5255C106.643 82.5255 113.29 71.6914 118.562 74.0893C118.562 74.0893 113.726 82.4382 106.344 84.4122L106.643 82.5255Z" fill="#A0B3F4"/>
<path opacity="0.7" d="M108.674 72.5392C108.674 72.5392 114.582 63.6084 120.124 64.6848C120.124 64.6848 115.304 73.7402 108.109 75.1199L108.674 72.5392Z" fill="#A0B3F4"/>
<path opacity="0.7" d="M110.49 63.2094C110.49 63.2094 117.199 54.4823 120.855 55.2386C120.855 55.2386 116.48 64.4312 110.411 64.9174L110.49 63.2094Z" fill="#A0B3F4"/>
<path opacity="0.7" d="M112.338 54.5696C112.338 54.5696 117.714 44.5957 121.544 44.6622C121.544 44.6622 118.694 53.2522 112.484 55.4672L112.338 54.5696Z" fill="#A0B3F4"/>
<path opacity="0.7" d="M113.996 43.0539C113.996 43.0539 118.919 35.2659 122.176 34.7423C122.176 34.7423 118.894 44.6081 114.108 45.3022L113.996 43.0539Z" fill="#A0B3F4"/>
<path opacity="0.7" d="M114.852 35.4238L118.37 20.2885C118.37 20.2885 120.743 33.0675 114.536 38.1583L114.852 35.4238Z" fill="#A0B3F4"/>
<path opacity="0.7" d="M114.677 19.395C114.677 19.395 113.718 7.39311 112.945 6.51208C112.945 6.51208 118.703 15.6881 115.487 24.623L114.677 19.395Z" fill="#A0B3F4"/>
<path opacity="0.7" d="M114.823 145.856C114.823 145.856 108.176 143.096 105.762 152.887C105.762 152.887 111.707 155.58 115.911 148.079L114.823 145.856Z" fill="#A0B3F4"/>
<path opacity="0.7" d="M110.515 136.077C110.515 136.077 102.567 133.903 100.523 144.039C100.523 144.039 106.879 147.04 111.582 138.383L110.515 136.077Z" fill="#A0B3F4"/>
<path opacity="0.7" d="M108.014 127.703C108.014 127.703 101.707 122.363 94.7196 129.86C94.7196 129.86 100.627 134.485 108.267 129.286L108.014 127.703Z" fill="#A0B3F4"/>
<path opacity="0.7" d="M105.762 118.012C105.762 118.012 99.3393 112.41 92.6923 119.778C92.6923 119.778 99.6799 124.516 106.007 119.529L105.762 118.012Z" fill="#A0B3F4"/>
<path opacity="0.7" d="M105.135 109.945C105.135 109.945 99.8502 101.218 92.3142 106.563C92.3142 106.563 98.0763 114.126 105.052 111.549L105.135 109.945Z" fill="#A0B3F4"/>
<path opacity="0.7" d="M105.317 99.7969C105.317 99.7969 100.033 90.9077 92.4388 96.6593C92.4388 96.6593 98.9363 104.555 105.18 101.326L105.317 99.7969Z" fill="#A0B3F4"/>
<path opacity="0.7" d="M106.265 90.9576C106.265 90.9576 103.095 80.7884 96.0781 80.9837C96.0781 80.9837 99.3185 91.7306 105.654 93.0023L106.265 90.9576Z" fill="#A0B3F4"/>
<path opacity="0.7" d="M106.8 82.5172C106.8 82.5172 104.192 70.0706 98.4294 70.5527C98.4294 70.5527 100.166 80.0445 106.447 84.3956L106.8 82.5172Z" fill="#A0B3F4"/>
<path opacity="0.7" d="M109.21 72.082C109.21 72.082 105.82 61.9253 100.183 61.5305C100.183 61.5305 102.497 71.5252 109.09 74.7251L109.21 72.082Z" fill="#A0B3F4"/>
<path opacity="0.7" d="M111.146 63.1804C111.146 63.1804 109.326 52.3255 105.745 51.2657C105.745 51.2657 105.284 61.4349 110.407 64.7263L111.146 63.1804Z" fill="#A0B3F4"/>
<path opacity="0.7" d="M112.571 54.4075C112.571 54.4075 110.29 43.2908 106.597 42.2726C106.597 42.2726 106.859 51.3197 112.176 55.222L112.571 54.4075Z" fill="#A0B3F4"/>
<path opacity="0.7" d="M114.623 43.8684C114.623 43.8684 113.128 34.7756 110.328 33.0343C110.328 33.0343 109.497 43.3988 113.651 45.9172L114.623 43.8684Z" fill="#A0B3F4"/>
<path opacity="0.7" d="M114.49 35.0083L109.646 20.2469C109.646 20.2469 108.4 33.1881 115.047 37.722L114.49 35.0083Z" fill="#A0B3F4"/>
<path opacity="0.7" d="M112.517 19.8937C112.517 19.8937 104.736 10.7052 104.678 9.54578C104.678 9.54578 107.058 20.1139 115.633 24.1824L112.517 19.8937Z" fill="#A0B3F4"/>
<path opacity="0.7" d="M112.745 16.7727C112.745 16.7727 104.615 3.2456 101.811 2.49756C101.811 2.49756 110.751 5.36089 113.161 16.2781L112.745 16.7727Z" fill="#A0B3F4"/>
<path opacity="0.7" d="M114.091 45.3978L113.676 45.3396C115.973 28.6292 115.545 18.2646 112.463 16.166L112.7 15.821C115.969 18.0527 116.447 28.2801 114.091 45.3978Z" fill="#444053"/>
<path opacity="0.7" d="M106.697 84.8777L106.078 84.7655C106.36 83.2237 106.676 81.6528 107.025 80.0944C110.062 66.5673 112.484 54.05 113.792 44.525L114.262 44.1842C112.949 53.7425 110.677 66.6878 107.64 80.2357C107.291 81.7608 106.975 83.3234 106.697 84.8777Z" fill="#444053"/>
<path opacity="0.7" d="M133.231 170.508C133.139 170.433 123.784 162.807 115.782 148.482C111.106 140.1 107.789 131.029 105.953 121.607C103.656 109.829 103.992 96.2064 106.302 83.5105L106.85 83.9759C101.678 112.476 109.218 134.959 116.505 148.046C124.398 162.234 133.654 169.78 133.75 169.855L133.231 170.508Z" fill="#444053"/>
</g>
<path d="M421.399 313.392C421.399 313.392 403.834 312.332 405.907 324.646C405.907 324.646 405.491 326.819 407.465 327.808C407.465 327.808 407.498 326.894 409.268 327.206C409.898 327.312 410.538 327.343 411.175 327.297C412.037 327.237 412.856 326.899 413.509 326.333V326.333C413.509 326.333 418.445 324.293 420.364 316.222C420.364 316.222 421.785 314.46 421.731 314.007L418.765 315.254C418.765 315.254 419.778 317.394 418.981 319.169C418.981 319.169 418.885 315.333 418.316 315.428C418.2 315.449 416.775 316.172 416.775 316.172C416.775 316.172 418.52 319.912 417.19 322.605C417.19 322.605 417.689 318.013 416.218 316.438L414.141 317.66C414.141 317.66 416.176 321.508 414.797 324.646C414.797 324.646 415.15 319.829 413.7 317.955L411.81 319.43C411.81 319.43 413.725 323.225 412.558 325.826C412.558 325.826 412.404 320.22 411.403 319.796C411.403 319.796 409.741 321.255 409.496 321.874C409.496 321.874 410.805 324.625 409.995 326.08C409.995 326.08 409.496 322.339 409.085 322.339C409.085 322.339 407.423 324.812 407.265 326.495C407.265 326.495 407.336 323.973 408.686 322.09C407.736 322.269 406.859 322.723 406.164 323.395C406.164 323.395 406.422 321.645 409.073 321.492C409.073 321.492 410.435 319.617 410.801 319.501C410.801 319.501 408.138 319.281 406.526 319.996C406.526 319.996 407.947 318.333 411.287 319.094L413.152 317.569C413.152 317.569 409.65 317.091 408.167 317.618C408.167 317.618 409.874 316.16 413.655 317.224L415.686 316.01C415.686 316.01 412.703 315.366 410.925 315.595C410.925 315.595 412.803 314.581 416.284 315.678L417.739 315.025C417.739 315.025 415.549 314.61 414.909 314.527C414.27 314.443 414.236 314.281 414.236 314.281C415.62 314.05 417.042 314.208 418.341 314.738C418.341 314.738 421.453 313.587 421.399 313.392Z" fill="#A0B3F4"/>
<path opacity="0.1" d="M409.301 330.983C416.166 330.983 421.731 330.042 421.731 328.881C421.731 327.719 416.166 326.778 409.301 326.778C402.436 326.778 396.871 327.719 396.871 328.881C396.871 330.042 402.436 330.983 409.301 330.983Z" fill="#A0B3F4"/>
<path d="M455.09 280.948C455.09 280.948 445.19 280.353 446.366 287.294C446.306 287.645 446.358 288.007 446.515 288.327C446.673 288.648 446.927 288.91 447.243 289.076C447.243 289.076 447.264 288.561 448.261 288.736C448.616 288.798 448.977 288.816 449.337 288.79C449.822 288.757 450.283 288.566 450.649 288.245V288.245C450.649 288.245 453.433 287.094 454.517 282.544C454.517 282.544 455.319 281.55 455.286 281.297L453.624 282.012C453.624 282.012 454.193 283.217 453.744 284.218C453.744 284.218 453.69 282.053 453.37 282.107C453.304 282.107 452.502 282.523 452.502 282.523C452.502 282.523 453.483 284.626 452.743 286.151C452.743 286.151 453.026 283.562 452.195 282.677L451.019 283.362C451.019 283.362 452.166 285.532 451.389 287.302C451.389 287.302 451.588 284.588 450.77 283.529L449.706 284.36C449.706 284.36 450.782 286.5 450.122 287.967C450.122 287.967 450.034 284.808 449.469 284.567C449.066 284.91 448.705 285.299 448.394 285.727C448.394 285.727 449.133 287.281 448.676 288.1C448.676 288.1 448.393 285.993 448.165 285.985C448.165 285.985 447.234 287.381 447.139 288.337C447.184 287.45 447.46 286.59 447.941 285.843C447.404 285.944 446.909 286.2 446.516 286.579C446.516 286.579 446.661 285.594 448.177 285.507C448.177 285.507 448.946 284.447 449.15 284.385C449.15 284.385 447.65 284.26 446.74 284.663C446.74 284.663 447.542 283.732 449.424 284.152L450.479 283.296C450.479 283.296 448.502 283.026 447.666 283.325C447.666 283.325 448.63 282.494 450.761 283.1L451.908 282.415C451.026 282.222 450.122 282.143 449.22 282.182C449.22 282.182 450.28 281.613 452.24 282.232L453.071 281.862C453.071 281.862 451.825 281.621 451.476 281.584C451.127 281.546 451.094 281.442 451.094 281.442C451.876 281.312 452.678 281.401 453.412 281.7C453.412 281.7 455.119 281.06 455.09 280.948Z" fill="#A0B3F4"/>
<path opacity="0.1" d="M448.273 290.868C452.144 290.868 455.281 290.337 455.281 289.683C455.281 289.029 452.144 288.499 448.273 288.499C444.402 288.499 441.265 289.029 441.265 289.683C441.265 290.337 444.402 290.868 448.273 290.868Z" fill="#A0B3F4"/>
<path d="M396.643 286.974C396.643 286.974 384.686 286.251 386.099 294.633C386.025 295.058 386.088 295.495 386.279 295.881C386.469 296.268 386.777 296.585 387.158 296.785C387.158 296.785 387.158 296.166 388.384 296.37C388.813 296.442 389.249 296.464 389.684 296.436C390.27 296.394 390.826 296.163 391.271 295.78V295.78C391.271 295.78 394.632 294.392 395.94 288.894C395.94 288.894 396.908 287.697 396.867 287.389L394.852 288.249C394.852 288.249 395.542 289.708 394.997 290.917C394.997 290.917 394.935 288.304 394.545 288.366C394.466 288.366 393.498 288.869 393.498 288.869C393.498 288.869 394.682 291.408 393.788 293.249C393.788 293.249 394.129 290.124 393.128 289.052L391.707 289.883C391.707 289.883 393.091 292.501 392.152 294.641C392.152 294.641 392.393 291.362 391.408 290.07L390.12 291.071C390.12 291.071 391.425 293.652 390.631 295.427C390.631 295.427 390.527 291.612 389.842 291.321C389.842 291.321 388.716 292.314 388.546 292.721C388.546 292.721 389.435 294.595 388.882 295.584C388.882 295.584 388.546 293.045 388.267 293.033C388.267 293.033 387.146 294.716 387.021 295.871C387.077 294.804 387.411 293.769 387.989 292.871C387.343 292.994 386.746 293.303 386.273 293.76C386.273 293.76 386.448 292.567 388.267 292.463C388.267 292.463 389.194 291.188 389.443 291.109C389.443 291.109 387.632 290.959 386.535 291.445C386.535 291.445 387.499 290.319 389.771 290.83L391.042 289.795C391.042 289.795 388.662 289.467 387.648 289.829C387.648 289.829 388.812 288.835 391.387 289.559L392.771 288.727C392.771 288.727 390.739 288.287 389.526 288.445C389.526 288.445 390.806 287.759 393.174 288.503L394.167 288.096C394.167 288.096 392.679 287.805 392.243 287.759C391.807 287.713 391.786 287.593 391.786 287.593C392.729 287.436 393.697 287.544 394.582 287.905C394.582 287.905 396.68 287.107 396.643 286.974Z" fill="#A0B3F4"/>
<path opacity="0.1" d="M388.409 298.946C393.082 298.946 396.871 298.306 396.871 297.517C396.871 296.727 393.082 296.087 388.409 296.087C383.735 296.087 379.946 296.727 379.946 297.517C379.946 298.306 383.735 298.946 388.409 298.946Z" fill="#A0B3F4"/>
<path opacity="0.1" d="M296.651 291.321L254.979 307.449L194.067 331C191.77 326.732 188.38 320.893 184.184 313.961C169.76 290.045 145.889 252.846 124.644 220.157C100.698 183.324 80.0921 152.222 80.0921 152.222L95.0104 147.896L216.866 112.543L296.651 291.321Z" fill="black"/>
<path d="M297.482 288.412L255.809 304.54L194.898 328.091C192.601 323.823 189.211 317.984 185.015 311.052C170.591 287.136 146.72 249.937 125.474 217.248C101.529 180.415 80.923 149.313 80.923 149.313L95.8413 144.987L217.697 109.634L297.482 288.412Z" fill="white"/>
<path opacity="0.1" d="M297.482 288.412L255.809 304.54C232.535 309.39 208.784 311.575 185.015 311.052C170.591 287.136 146.72 249.937 125.474 217.248L95.8413 144.987L217.697 109.634L297.482 288.412Z" fill="black"/>
<path d="M328.486 278.379C328.486 278.379 263.744 316.687 167.089 308.043L90.0252 120.123L126.953 113.777L254.609 91.847L327.04 274.747L328.486 278.379Z" fill="#A0B3F4"/>
<path opacity="0.1" d="M327.04 274.747C311.794 275.495 294.163 275.425 276.415 273.309C257.214 271.057 237.921 266.394 221.345 257.858C207.502 250.723 195.667 242.972 185.343 233.667C158.502 209.514 141.888 174.963 126.97 113.777L254.625 91.847L327.04 274.747Z" fill="black"/>
<path d="M374.529 264.241C374.529 264.241 326.787 273.6 278.239 267.836C259.037 265.571 239.724 260.921 223.169 252.385C209.326 245.25 197.49 237.499 187.167 228.194C153.932 198.273 136.396 152.467 118.308 59.9223C118.308 59.9223 197.657 79.0763 276.054 37.1195C276.054 37.1195 302.496 202.216 374.529 264.241Z" fill="white"/>
<path opacity="0.1" d="M278.239 267.836C259.037 265.571 239.724 260.921 223.169 252.385C209.326 245.25 197.49 237.499 187.167 228.194C215.454 225.896 219.521 210.424 219.521 210.424C240.492 243.72 278.239 267.836 278.239 267.836Z" fill="black"/>
<path opacity="0.3" d="M159.341 93.9C159.341 93.9 201.965 98.7664 241.859 76.3418L244.593 85.123C244.593 85.123 206.426 104.161 159.341 104.161V93.9Z" fill="#A0B3F4"/>
<path opacity="0.3" d="M159.341 137.241C159.341 137.241 201.715 133.82 248.888 111.013L250.484 114.662C250.484 114.662 233.122 136.517 159.341 142.228V137.241Z" fill="black"/>
<path opacity="0.3" d="M164.363 154.146C164.363 154.146 206.738 150.726 253.911 127.923L255.506 131.572C255.506 131.572 238.149 153.448 164.363 159.163V154.146Z" fill="black"/>
<path opacity="0.3" d="M168.958 172.37C168.958 172.37 211.333 168.949 258.506 146.146L260.101 149.795C260.101 149.795 242.719 171.659 168.958 177.386V172.37Z" fill="black"/>
<path opacity="0.3" d="M174.413 187.987C174.413 187.987 216.787 184.567 263.96 161.764L265.556 165.413C265.556 165.413 248.199 187.28 174.413 193.007V187.987Z" fill="black"/>
<path opacity="0.1" d="M179.44 204.909C179.44 204.909 221.814 201.489 268.987 178.686L270.582 182.335C270.582 182.335 253.221 204.203 179.44 209.925V204.909Z" fill="black"/>
<path opacity="0.3" d="M267.745 99.6334L255.888 103.671L259.924 115.533L271.782 111.495L267.745 99.6334Z" fill="#A0B3F4"/>
<path opacity="0.3" d="M274.491 117.279L262.633 121.317L266.67 133.178L278.527 129.141L274.491 117.279Z" fill="#A0B3F4"/>
<path opacity="0.3" d="M285.304 151.232L273.447 155.27L277.484 167.131L289.341 163.093L285.304 151.232Z" fill="#A0B3F4"/>
<path opacity="0.3" d="M291.509 169.455L279.652 173.493L283.688 185.354L295.545 181.316L291.509 169.455Z" fill="#A0B3F4"/>
<path opacity="0.3" d="M279.99 135.61L268.133 139.648L272.17 151.51L284.027 147.472L279.99 135.61Z" fill="#A0B3F4"/>
<path d="M403.971 186.832L403.526 186.416C404.673 186.183 405.753 186.079 405.753 186.079C405.753 186.079 401.819 171.842 395.184 167.092C391.902 164.744 389.169 160.833 387.237 157.479C383.716 151.415 379.76 145.614 375.401 140.121L374.205 138.612L373.69 137.955C374.408 136.867 375.289 135.832 375.189 134.568C375.187 134.56 375.187 134.552 375.189 134.544C375.194 134.477 375.194 134.41 375.189 134.344C375.177 134.188 375.15 134.033 375.106 133.883L375.061 133.953C374.5 132.324 372.344 131.605 370.744 130.708C367.005 128.601 365.406 123.996 364.608 119.716C363.985 116.391 363.47 112.651 360.869 110.511C359.208 109.135 356.948 108.682 355.273 107.315C353.686 106.018 352.802 104.053 351.804 102.245C350.143 99.2318 347.949 96.4267 345.054 94.6272C342.158 92.8278 338.481 92.1337 335.303 93.3389C334.086 93.8044 332.981 94.5275 331.776 95.0303C328.785 96.2771 325.358 96.1108 322.396 97.4282C318.748 99.049 316.376 102.631 314.207 106.031C313.086 107.789 311.324 110.361 310.323 112.95C310.323 112.859 310.323 112.771 310.323 112.68C309.843 113.821 309.581 115.041 309.55 116.279C309.531 116.805 309.588 117.332 309.721 117.841C310.169 119.504 311.507 120.422 313.094 121.062C313.186 121.591 313.308 122.114 313.46 122.629C314.178 124.993 315.455 127.15 317.184 128.916C318.912 130.682 321.04 132.005 323.389 132.773C323.526 132.823 323.667 132.856 323.804 132.898C323.92 133.227 324.086 133.535 324.298 133.812C325.624 135.474 328.282 135.001 330.011 133.791C330.081 133.746 330.148 133.687 330.214 133.638C330.226 133.873 330.251 134.107 330.289 134.34C330.326 134.539 330.355 134.755 330.397 134.934C331.955 143.333 335.943 147.867 335.943 147.867C335.943 147.867 336.313 148.424 336.915 149.346C336.599 153.98 338.714 158.202 341.157 161.465C339.051 162.682 334.51 165.068 331.702 164.868C331.702 164.868 321.382 166.202 320.186 165.533C320.019 165.442 319.862 165.566 319.712 165.849C316.87 164.116 307.785 159.121 307.008 165.533C306.306 171.351 314.586 172.095 318.528 172.124C318.349 173.828 318.25 175.191 318.25 175.191L335.204 174.032L344.032 172.731C343.055 174.023 341.954 175.175 340.879 175.736C340.879 175.736 332.898 182.198 331.519 182.256C331.323 182.256 331.261 182.451 331.29 182.763C327.933 182.763 317.494 183.249 320.389 189.067C323.019 194.341 330.422 190.692 333.77 188.677C334.56 190.21 335.233 191.411 335.233 191.411L348.913 181.666L351.875 179.173C352.879 179.124 353.871 178.932 354.821 178.603C354.821 178.641 354.85 178.678 354.862 178.711C354.968 179.017 355.047 179.331 355.099 179.65C355.93 184.425 353.138 195.563 353.138 195.563C353.138 195.563 346.998 211.226 349.947 213.362C352.897 215.498 350.716 224.512 350.716 224.512C351.231 225.379 351.823 226.196 352.486 226.956V226.956C352.798 227.317 353.145 227.646 353.52 227.941C353.383 228.314 353.269 228.696 353.18 229.083C352.729 231.004 352.899 233.018 353.666 234.835C355.693 239.756 354.459 246.887 354.459 246.887L350.479 273.783C348.568 273.492 346.101 273.251 345.182 273.783C343.774 274.577 344.235 278.579 347.505 280.299C346.512 281.06 345.363 281.589 344.14 281.849C341.232 282.514 339.188 282.938 337.842 283.196C337.754 283.196 330.862 281.675 329.093 282.681C327.323 283.686 328.174 289.263 333.21 290.631C338.137 291.965 356.511 293.922 361.804 293.124L362.141 293.066C366.64 292.177 362.689 286.263 362.19 285.544C362.157 285.303 362.128 285.049 362.095 284.775C362.024 284.16 361.962 283.454 361.916 282.697C366.935 283.159 371.887 283.383 374.159 283.042C374.267 283.042 374.367 283.009 374.458 282.988C378.442 282.199 374.953 276.971 374.504 276.339C374.485 276.178 374.464 276.008 374.442 275.828V275.782C374.442 275.662 374.413 275.533 374.4 275.408C374.388 275.283 374.4 275.196 374.367 275.084C374.334 274.972 374.367 274.884 374.338 274.781C374.321 274.575 374.305 274.364 374.288 274.145C374.288 274.057 374.288 273.966 374.288 273.875C374.288 273.708 374.267 273.542 374.259 273.372C374.259 273.28 374.259 273.189 374.259 273.093C374.259 272.844 374.259 272.586 374.234 272.329C374.234 272.258 374.234 272.187 374.234 272.117C374.234 271.909 374.234 271.701 374.234 271.485C374.234 271.385 374.234 271.285 374.234 271.182C374.234 270.961 374.234 270.741 374.234 270.517C374.234 270.442 374.234 270.371 374.234 270.296C374.234 270.018 374.259 269.731 374.275 269.444L374.3 269.137C374.3 268.925 374.334 268.721 374.354 268.505C374.354 268.401 374.354 268.297 374.388 268.194C374.421 267.903 374.458 267.612 374.5 267.317C374.5 267.229 374.529 267.142 374.541 267.055C374.579 266.835 374.616 266.61 374.658 266.386C374.658 266.278 374.699 266.166 374.724 266.053C374.774 265.812 374.828 265.571 374.886 265.33C374.886 265.264 374.915 265.197 374.932 265.131C375.007 264.84 375.09 264.553 375.177 264.266C375.206 264.167 375.239 264.067 375.273 263.967C375.343 263.751 375.418 263.552 375.497 263.327L375.597 263.061C375.709 262.779 375.829 262.5 375.954 262.23C375.987 262.159 376.024 262.089 376.062 262.018C376.166 261.802 376.278 261.603 376.394 261.378L376.535 261.133C376.693 260.867 376.855 260.601 377.034 260.347C381.604 253.831 382.809 241.264 382.696 238.53C382.584 235.795 383.241 230.122 384.059 229.283C384.607 228.722 387.798 224.296 389.705 220.93C390.05 220.315 390.349 219.737 390.586 219.222C391.94 218.752 392.837 218.391 392.837 218.391C392.36 216.646 392.131 214.843 392.156 213.034C392.189 209.497 393.161 204.839 397.174 201.057C403.098 195.471 403.925 189.936 404.004 187.808C404.004 187.659 404.004 187.526 404.004 187.413C403.992 187.023 403.971 186.832 403.971 186.832Z" fill="url(#paint0_linear)"/>
<path d="M388.184 221.686C386.576 224.56 384.772 227.319 382.784 229.944C382.003 230.775 381.375 236.389 381.483 239.087C381.591 241.784 380.449 254.218 376.083 260.659C371.716 267.101 373.96 278.234 373.96 278.234L366.993 280.678H358.622L352.856 278.953L351.335 274.756C351.335 274.756 353.362 274.444 358.397 273.247C359.794 272.963 361.059 272.229 362.001 271.159C362.942 270.088 363.508 268.739 363.611 267.317L367.147 242.619C367.147 242.619 368.189 236.385 366.469 232.072C365.985 230.858 365.784 229.549 365.882 228.245C365.98 226.942 366.374 225.678 367.034 224.55L367.147 224.375C367.147 224.375 372.601 220.066 378.16 217.368C383.083 214.991 388.076 213.861 389.493 218.079C389.676 218.623 389.077 220.024 388.184 221.686Z" fill="#A5636D"/>
<path opacity="0.05" d="M388.184 221.686C386.576 224.56 384.772 227.319 382.784 229.944C382.003 230.775 381.375 236.389 381.483 239.087C381.591 241.784 380.449 254.218 376.083 260.659C373.008 265.201 373.212 272.067 373.59 275.728C373.752 277.262 373.951 278.222 373.951 278.222L366.985 280.665H358.622L352.856 278.953L351.335 274.756C351.335 274.756 351.842 274.677 352.997 274.452C354.152 274.228 355.905 273.846 358.422 273.247C359.814 272.958 361.074 272.222 362.011 271.152C362.947 270.082 363.509 268.735 363.611 267.317L367.147 242.619C367.147 242.619 368.189 236.385 366.469 232.072C365.985 230.858 365.784 229.549 365.882 228.245C365.98 226.942 366.374 225.678 367.034 224.55L367.147 224.375C367.147 224.375 372.601 220.066 378.16 217.368C383.083 214.991 388.076 213.861 389.493 218.079C389.676 218.623 389.077 220.024 388.184 221.686Z" fill="black"/>
<path opacity="0.1" d="M373.96 278.238L366.993 280.682H358.622L352.856 278.953L351.335 274.756C351.335 274.756 351.842 274.677 352.997 274.452C352.915 275.215 353.116 275.981 353.56 276.606C354.005 277.231 354.663 277.671 355.41 277.843L358.684 277.955C359.145 277.955 359.611 277.98 360.068 277.98C364.672 277.983 369.246 277.223 373.602 275.732C373.769 277.266 373.96 278.238 373.96 278.238Z" fill="black"/>
<path d="M358.68 278.662L355.402 278.55C355.402 278.55 352.345 277.901 353.092 274.431C353.092 274.431 347.193 273.093 345.685 273.978C344.177 274.864 344.904 279.747 349.166 280.944C353.321 282.111 368.883 283.828 373.357 283.125L373.644 283.075C377.699 282.244 373.644 276.426 373.644 276.426C368.833 278.073 363.762 278.831 358.68 278.662Z" fill="#BEBED0"/>
<path d="M378.866 222.642C378.646 223.083 378.409 223.54 378.139 224.018C376.083 227.758 372.784 232.466 372.207 233.077C371.326 234.016 370.624 240.35 370.736 243.408C370.848 246.467 369.569 260.48 364.641 267.753C362.12 271.493 361.551 276.584 361.592 280.682C361.605 282.07 361.686 283.457 361.837 284.837C362.02 286.529 362.253 287.584 362.253 287.584L354.393 290.34H344.933L338.423 288.403L336.72 283.649C336.72 283.649 337.289 283.558 338.569 283.304C339.848 283.05 341.842 282.627 344.692 281.953C346.265 281.628 347.688 280.799 348.748 279.592C349.807 278.384 350.444 276.865 350.562 275.263L354.546 247.39C354.546 247.39 355.722 240.346 353.786 235.483C353.055 233.679 352.893 231.694 353.321 229.794C353.552 228.727 353.975 227.711 354.567 226.794C354.567 226.794 356.088 225.597 358.381 224.013C359.395 223.315 360.57 222.542 361.833 221.761C367.383 218.324 374.683 214.817 378.181 217.372C378.952 217.955 379.517 218.769 379.792 219.696C379.934 220.178 379.539 221.271 378.866 222.642Z" fill="#A5636D"/>
<path opacity="0.1" d="M362.232 287.589L354.372 290.344H344.933L338.423 288.407L336.72 283.653C336.72 283.653 337.289 283.562 338.569 283.308C338.487 283.872 338.545 284.446 338.738 284.982C338.93 285.517 339.252 285.997 339.674 286.379C340.329 286.936 341.157 287.248 342.017 287.26L344.995 287.356C345.515 287.356 346.038 287.385 346.558 287.385C351.756 287.384 356.919 286.524 361.837 284.842C362.02 286.533 362.232 287.589 362.232 287.589Z" fill="black"/>
<path d="M344.991 288.062L342.017 287.963C341.156 287.948 340.327 287.637 339.67 287.082C338.913 286.408 338.261 285.245 338.685 283.287C338.685 283.287 332.038 281.779 330.322 282.776C328.606 283.774 329.446 289.288 334.252 290.639C338.959 291.956 356.507 293.893 361.559 293.103L361.879 293.045C366.449 292.106 361.879 285.532 361.879 285.532C356.451 287.397 350.728 288.254 344.991 288.062V288.062Z" fill="#BEBED0"/>
<path opacity="0.1" d="M388.184 221.686C385.339 222.68 381.159 223.997 378.866 224.051C378.629 224.06 378.391 224.049 378.156 224.018V224.018C376.552 223.797 371.596 224.151 367.051 224.558C365.227 224.72 363.474 224.89 362.024 225.04C359.864 225.264 358.377 225.426 358.377 225.426V224.018C359.39 223.32 360.566 222.547 361.829 221.765C367.379 218.328 374.678 214.821 378.176 217.377C383.099 215 388.093 213.869 389.51 218.087C389.676 218.623 389.078 220.024 388.184 221.686Z" fill="black"/>
<path d="M401.84 188.91C401.761 191.017 400.971 196.486 395.313 202.013C388.101 209.057 391.159 219.172 391.159 219.172C391.159 219.172 382.559 222.551 378.849 222.642C378.612 222.651 378.374 222.64 378.139 222.609C375.912 222.297 367.072 223.116 361.991 223.631C359.831 223.856 358.343 224.018 358.343 224.018V194.096L398.196 184.417L401.806 188.012C401.838 188.31 401.849 188.61 401.84 188.91Z" fill="#5C5C8E"/>
<g opacity="0.1">
<path opacity="0.1" d="M359.016 223.648L358.36 223.718V224.034C358.36 224.034 359.847 223.872 362.008 223.648C365.655 223.278 371.226 222.758 374.911 222.605C372.36 222.372 363.935 223.149 359.016 223.648Z" fill="black"/>
<path opacity="0.1" d="M401.823 188.028L398.213 184.43L395.807 185.032L398.832 188.045C398.852 188.345 398.852 188.647 398.832 188.947C398.753 191.05 397.964 196.523 392.305 202.05C385.093 209.09 388.151 219.209 388.151 219.209C388.151 219.209 381.035 222.002 376.959 222.58C377.348 222.578 377.736 222.599 378.122 222.642C378.358 222.675 378.595 222.687 378.833 222.679C382.543 222.588 391.142 219.209 391.142 219.209C391.142 219.209 388.068 209.09 395.297 202.05C400.955 196.523 401.744 191.05 401.823 188.947C401.844 188.641 401.844 188.334 401.823 188.028Z" fill="black"/>
</g>
<path d="M322.2 167.773C322.2 167.773 310.153 159.412 309.268 166.942C308.383 174.472 322.2 173.396 322.2 173.396V167.773Z" fill="#A5636D"/>
<path d="M342.972 162.229C342.972 162.229 336.454 166.543 332.848 166.277C332.848 166.277 322.994 167.599 321.847 166.938C320.701 166.277 320.003 176.496 320.003 176.496L336.205 175.353L346.591 173.766C346.591 173.766 351.784 170.599 351.784 167.869C351.784 165.138 342.972 162.229 342.972 162.229Z" fill="#F7CDDD"/>
<path opacity="0.05" d="M342.972 162.229C342.972 162.229 336.454 166.543 332.848 166.277C332.848 166.277 322.994 167.599 321.847 166.938C320.701 166.277 320.003 176.496 320.003 176.496L336.205 175.353L346.591 173.766C346.591 173.766 351.784 170.599 351.784 167.869C351.784 165.138 342.972 162.229 342.972 162.229Z" fill="black"/>
<path d="M333.413 183.989C333.413 183.989 318.761 183.382 322.043 190.223C325.324 197.063 336.429 188.76 336.429 188.76L333.413 183.989Z" fill="#A5636D"/>
<path d="M348.153 169.448C348.153 169.448 336.275 160.559 337.95 149.733C339.624 138.907 348.153 158.02 348.153 158.02V169.448Z" fill="#5C5C8E"/>
<path d="M344.871 120.368C344.867 124.263 343.352 128.004 340.646 130.803C339.987 131.491 339.261 132.111 338.477 132.653C336.982 133.696 335.314 134.467 333.55 134.93C332.849 135.105 332.137 135.231 331.419 135.308C330.904 135.358 330.385 135.387 329.857 135.387C328.172 135.397 326.498 135.116 324.909 134.556C322.308 133.648 320.006 132.041 318.257 129.911C316.507 127.781 315.378 125.211 314.991 122.482C314.605 119.753 314.977 116.97 316.066 114.438C317.156 111.906 318.921 109.723 321.168 108.128C323.415 106.533 326.057 105.587 328.806 105.394C331.555 105.201 334.304 105.768 336.751 107.034C339.199 108.3 341.251 110.215 342.684 112.57C344.116 114.925 344.872 117.628 344.871 120.385V120.368Z" fill="#A5636D"/>
<path opacity="0.1" d="M401.84 188.91C400.494 189.159 398.832 189.608 398.832 190.306C398.832 191.482 380.062 197.82 380.062 197.82C380.062 197.82 380.765 199.457 378.891 202.275C377.017 205.092 361.762 221.283 361.762 221.283L361.812 221.765L362.008 223.631L362.938 232.549C362.938 232.549 357.072 230.438 355.194 230.671C354.588 230.75 353.948 230.359 353.321 229.798C353.552 228.731 353.975 227.715 354.567 226.798C354.567 226.798 356.088 225.601 358.381 224.018V194.096L398.234 184.417L401.844 188.012C401.863 188.311 401.861 188.611 401.84 188.91V188.91Z" fill="black"/>
<path d="M403.526 187.256C403.526 187.256 398.832 187.721 398.832 188.897C398.832 190.073 380.062 196.411 380.062 196.411C380.062 196.411 380.765 198.048 378.891 200.866C377.017 203.683 361.762 219.878 361.762 219.878L362.938 231.141C362.938 231.141 357.072 229.029 355.194 229.262C354.364 229.366 353.429 228.593 352.66 227.691C352.025 226.939 351.459 226.131 350.969 225.277C350.969 225.277 353.084 216.354 350.267 214.243C347.451 212.132 353.317 196.643 353.317 196.643C353.317 196.643 355.967 185.631 355.186 180.905C355.138 180.589 355.063 180.278 354.962 179.975C354.962 179.941 354.941 179.904 354.929 179.871C353.267 175.358 335.253 137.482 335.253 137.482C335.265 136.407 335.34 135.335 335.478 134.269C335.515 133.974 335.565 133.667 335.619 133.355C335.71 132.795 335.832 132.24 335.985 131.693C336.08 131.342 336.194 130.997 336.325 130.658C336.882 129.228 337.734 128.127 339.005 128.102C339.005 128.102 340.413 126.544 343.716 126.12C346.134 125.804 349.586 126.12 354.26 128.102C365.281 132.79 367.865 133.031 367.865 133.031L373.403 140.303L374.541 141.795C378.714 147.239 382.492 152.975 385.845 158.959C387.69 162.283 390.303 166.144 393.435 168.467C399.771 173.176 403.526 187.256 403.526 187.256Z" fill="#F7CDDD"/>
<path opacity="0.1" d="M362.406 160.118C362.406 160.118 378.068 163.991 384.138 173.757L362.406 160.118Z" fill="black"/>
<path opacity="0.1" d="M367.246 177.277C367.246 177.277 370.208 197.171 369.386 198.667C368.563 200.163 367.246 177.277 367.246 177.277Z" fill="black"/>
<path opacity="0.1" d="M366.187 187.488C365.049 188.98 360.425 200.512 360.425 200.512L361.758 219.878L362.934 231.141C362.934 231.141 357.072 229.029 355.194 229.262C354.364 229.366 353.425 228.593 352.66 227.691C353.878 221.096 356.482 207.295 356.952 207.029C357.571 206.675 360.741 195.588 360.907 192.483C361.073 189.379 365.477 182.46 365.477 182.46C365.477 182.46 367.334 185.996 366.187 187.488Z" fill="black"/>
<path opacity="0.1" d="M361.762 168.48C361.472 169.357 361.023 174.464 361.023 174.464C360.699 178.961 357.284 180.432 355.186 180.906C355.138 180.589 355.063 180.278 354.962 179.975C353.553 175.989 335.253 137.498 335.253 137.498C335.273 135.546 335.518 133.601 335.985 131.705C339.969 130.533 346.275 132.337 346.275 132.337C348.099 132.096 354.048 143.927 354.048 143.927C354.048 143.927 358.011 152.987 358.447 154.221C358.883 155.455 358.447 157.479 358.622 158.186C358.796 158.892 360.649 159.499 360.911 160.472C361.173 161.444 361.002 163.381 361.177 163.725C361.351 164.07 362.057 167.599 361.762 168.48Z" fill="black"/>
<path d="M360.354 167.773C360.063 168.654 359.615 173.758 359.615 173.758C359.349 177.498 356.939 179.16 354.929 179.871C354.022 180.195 353.073 180.384 352.112 180.432L349.283 182.892L336.217 192.513C336.217 192.513 331.348 183.507 332.669 183.457C333.991 183.407 341.61 177.007 341.61 177.007C343.94 175.761 346.275 171.605 347.359 169.469C347.297 169.214 347.25 168.956 347.218 168.696C346.749 164.71 336.894 149.45 336.894 149.45C336.894 149.45 333.085 144.966 331.602 136.659C331.56 136.468 331.531 136.272 331.494 136.073C331.452 135.814 331.427 135.553 331.419 135.292C331.24 132.096 333.567 130.932 336.325 130.658C337.766 130.544 339.215 130.588 340.646 130.791C342.072 130.971 343.483 131.248 344.871 131.622C346.051 131.464 348.959 136.372 350.866 139.851C351.892 141.737 352.631 143.208 352.631 143.208C352.631 143.208 356.594 152.272 357.031 153.502C357.467 154.732 357.031 156.765 357.205 157.467C357.38 158.169 359.232 158.784 359.494 159.757C359.756 160.729 359.586 162.666 359.76 163.011C359.935 163.356 360.649 166.892 360.354 167.773Z" fill="#F7CDDD"/>
<path opacity="0.1" d="M375.509 147.468C373.017 150.016 368.991 150.024 365.759 148.715C362.527 147.406 359.789 145.062 356.794 143.237C354.85 142.049 352.789 141.076 350.874 139.85C350.591 139.668 350.317 139.485 350.043 139.294C347.833 137.731 345.918 135.724 343.629 134.307C342.098 133.288 340.315 132.713 338.477 132.644C337.631 132.637 336.794 132.813 336.022 133.16C335.879 133.218 335.74 133.286 335.607 133.363C334.853 133.796 334.155 134.319 333.529 134.922C332.881 135.504 332.262 136.123 331.581 136.667C331.539 136.476 331.51 136.281 331.473 136.081C331.431 135.823 331.406 135.562 331.398 135.3C330.883 135.35 330.364 135.379 329.836 135.379C328.151 135.389 326.477 135.107 324.888 134.548C324.888 134.485 324.888 134.423 324.851 134.361C324.29 131.402 323.276 128.268 320.896 126.606C319.517 125.642 317.315 125.247 315.404 124.528C314.742 122.222 314.641 119.791 315.111 117.438C315.581 115.085 316.608 112.88 318.105 111.005C319.602 109.131 321.527 107.643 323.717 106.665C325.908 105.688 328.3 105.249 330.695 105.387C333.089 105.525 335.416 106.234 337.48 107.456C339.544 108.678 341.286 110.376 342.559 112.41C343.832 114.443 344.599 116.752 344.797 119.143C344.995 121.534 344.617 123.938 343.695 126.153C346.113 125.837 349.565 126.153 354.239 128.135C365.26 132.823 367.844 133.064 367.844 133.064L373.382 140.337C372.784 141.251 372.107 142.153 372.045 143.221C371.941 145.178 373.848 146.545 375.509 147.468Z" fill="black"/>
<path d="M320.913 125.189C323.293 126.851 324.307 129.981 324.872 132.935C325.046 133.858 325.212 134.83 325.777 135.562C327.024 137.199 329.583 136.738 331.232 135.562C332.881 134.386 334.182 132.603 336.022 131.772C338.465 130.666 341.34 131.472 343.629 132.906C345.918 134.34 347.833 136.347 350.043 137.893C352.183 139.402 354.567 140.478 356.794 141.837C359.789 143.661 362.527 146.018 365.759 147.314C368.991 148.611 373.029 148.607 375.505 146.068C373.843 145.145 371.937 143.782 372.065 141.804C372.194 139.826 374.496 138.35 374.342 136.322C374.188 134.294 371.804 133.5 370.092 132.503C366.519 130.425 364.995 125.854 364.23 121.636C363.636 118.336 363.146 114.65 360.682 112.53C359.091 111.167 356.943 110.723 355.34 109.372C353.823 108.088 352.98 106.147 352.016 104.356C350.425 101.376 348.336 98.6043 345.573 96.8215C342.81 95.0387 339.296 94.328 336.263 95.5498C335.1 96.0111 334.04 96.7259 332.894 97.2122C330.036 98.4589 326.766 98.2802 323.937 99.581C320.451 101.185 318.187 104.726 316.114 108.088C314.361 110.968 310.884 116.046 311.868 119.786C312.849 123.589 318.329 123.385 320.913 125.189Z" fill="#070A19"/>
<g opacity="0.1">
<path opacity="0.1" d="M374.338 136.094C374.325 135.939 374.299 135.786 374.259 135.637C373.627 136.63 372.842 137.594 372.767 138.758C372.751 139.027 372.774 139.297 372.834 139.56C373.536 138.442 374.437 137.39 374.338 136.094Z" fill="black"/>
<path opacity="0.1" d="M366.461 144.281C363.229 142.984 360.495 140.628 357.5 138.803C355.269 137.444 352.885 136.368 350.745 134.859C348.535 133.297 346.62 131.29 344.331 129.873C342.042 128.455 339.171 127.633 336.724 128.734C334.884 129.565 333.588 131.331 331.934 132.528C330.281 133.725 327.746 134.19 326.479 132.528C325.914 131.797 325.748 130.824 325.574 129.902C325.013 126.947 323.995 123.818 321.619 122.155C319.031 120.347 313.551 120.551 312.558 116.753C312.392 116.073 312.349 115.37 312.429 114.675C311.794 116.37 311.466 118.074 311.852 119.558C312.849 123.373 318.329 123.169 320.913 124.96C323.293 126.623 324.307 129.756 324.872 132.711C325.046 133.634 325.212 134.606 325.773 135.337C327.019 136.975 329.579 136.513 331.232 135.317C332.885 134.12 334.177 132.358 336.022 131.527C338.465 130.425 341.34 131.231 343.629 132.665C345.918 134.099 347.833 136.106 350.043 137.652C352.182 139.165 354.567 140.237 356.794 141.596C359.789 143.425 362.527 145.781 365.759 147.077C368.991 148.374 373.029 148.366 375.505 145.831C374.865 145.487 374.257 145.085 373.69 144.63C371.438 145.457 368.75 145.199 366.461 144.281Z" fill="black"/>
</g>
<path d="M292.933 172.706L326.168 160.289C326.557 160.143 326.97 160.075 327.385 160.089C327.8 160.104 328.208 160.199 328.586 160.372C328.963 160.544 329.304 160.789 329.587 161.093C329.87 161.396 330.09 161.753 330.235 162.142V162.142C330.38 162.531 330.447 162.945 330.432 163.36C330.418 163.775 330.321 164.183 330.149 164.561C329.976 164.939 329.731 165.279 329.427 165.562C329.124 165.845 328.767 166.065 328.378 166.211L295.143 178.632L288.022 177.917L292.933 172.706Z" fill="#5C5C8E"/>
<path opacity="0.1" d="M329.225 161.145C329.519 161.931 329.488 162.802 329.14 163.565C328.791 164.329 328.154 164.923 327.368 165.217L294.134 177.635L288.783 177.099L288.014 177.93L295.135 178.645L328.37 166.223C328.759 166.078 329.115 165.857 329.419 165.574C329.723 165.291 329.968 164.951 330.141 164.574C330.313 164.196 330.409 163.788 330.424 163.373C330.439 162.958 330.372 162.544 330.227 162.155V162.155C329.983 161.499 329.529 160.944 328.935 160.575C329.049 160.756 329.146 160.946 329.225 161.145Z" fill="white"/>
<path d="M292.933 172.706L295.147 178.632L289.302 178.046L288.022 177.918L289.771 176.064L292.933 172.706Z" fill="#EFC8C4"/>
<path d="M289.767 176.064C289.905 176.164 290.021 176.292 290.108 176.438C290.163 176.524 290.192 176.624 290.192 176.727C290.192 176.829 290.163 176.929 290.108 177.016C290.012 177.108 289.903 177.185 289.784 177.244C289.649 177.333 289.536 177.451 289.454 177.59C289.372 177.729 289.323 177.885 289.31 178.046L288.031 177.917L289.767 176.064Z" fill="#727A9C"/>
<path d="M263.923 108.495L258.319 105.761C258.239 105.722 258.167 105.667 258.108 105.601C258.049 105.534 258.004 105.456 257.975 105.372C257.946 105.288 257.934 105.199 257.94 105.11C257.945 105.021 257.968 104.935 258.007 104.855L258.601 103.633C258.64 103.552 258.694 103.481 258.76 103.421C258.827 103.362 258.905 103.317 258.989 103.288C259.073 103.259 259.162 103.247 259.251 103.252C259.34 103.258 259.427 103.282 259.507 103.321L263.283 105.162L267.226 97.075C267.304 96.9135 267.444 96.7898 267.614 96.7306C267.783 96.6715 267.969 96.6817 268.131 96.7591L269.353 97.3575C269.433 97.3961 269.505 97.4503 269.564 97.5169C269.623 97.5834 269.669 97.6611 269.698 97.7454C269.727 97.8297 269.739 97.9189 269.733 98.0078C269.727 98.0968 269.704 98.1837 269.664 98.2635L264.829 108.183C264.79 108.263 264.735 108.335 264.669 108.394C264.602 108.453 264.524 108.498 264.44 108.527C264.356 108.556 264.267 108.568 264.178 108.562C264.09 108.557 264.003 108.534 263.923 108.495V108.495Z" fill="#3ACC6C"/>
<path d="M276.166 143.474L270.562 140.74C270.482 140.701 270.41 140.646 270.351 140.58C270.292 140.513 270.247 140.436 270.218 140.351C270.189 140.267 270.177 140.178 270.183 140.089C270.188 140.001 270.211 139.914 270.25 139.834L270.844 138.612C270.924 138.45 271.064 138.327 271.235 138.268C271.405 138.21 271.592 138.221 271.754 138.3L275.526 140.141L279.464 132.046C279.543 131.884 279.683 131.761 279.852 131.702C280.022 131.642 280.208 131.653 280.37 131.73L281.587 132.328C281.668 132.367 281.74 132.421 281.799 132.488C281.858 132.554 281.904 132.632 281.933 132.716C281.962 132.8 281.975 132.889 281.97 132.978C281.965 133.067 281.942 133.154 281.903 133.234L277.067 143.154C276.987 143.315 276.847 143.438 276.676 143.497C276.506 143.555 276.32 143.544 276.158 143.466L276.166 143.474Z" fill="#3ACC6C"/>
<path d="M270.67 126.232L265.065 123.497C264.904 123.419 264.78 123.279 264.721 123.109C264.662 122.94 264.672 122.754 264.75 122.592L265.348 121.37C265.387 121.289 265.441 121.217 265.507 121.158C265.574 121.099 265.651 121.054 265.736 121.025C265.82 120.996 265.909 120.984 265.998 120.989C266.087 120.995 266.174 121.018 266.254 121.058L270.03 122.899L273.972 114.799C274.011 114.719 274.066 114.648 274.132 114.589C274.199 114.53 274.277 114.485 274.361 114.456C274.445 114.427 274.534 114.415 274.623 114.42C274.711 114.426 274.798 114.449 274.878 114.488L276.099 115.082C276.26 115.162 276.383 115.303 276.442 115.473C276.5 115.643 276.489 115.83 276.411 115.992L271.571 125.92C271.532 126 271.478 126.072 271.411 126.131C271.345 126.19 271.267 126.235 271.183 126.264C271.099 126.293 271.01 126.305 270.921 126.299C270.832 126.294 270.745 126.271 270.666 126.232H270.67Z" fill="#3ACC6C"/>
<path d="M281.483 159.266L275.879 156.532C275.799 156.493 275.728 156.438 275.669 156.372C275.61 156.305 275.565 156.227 275.536 156.143C275.507 156.059 275.495 155.97 275.5 155.881C275.506 155.793 275.529 155.706 275.568 155.626L276.162 154.404C276.201 154.324 276.255 154.253 276.322 154.194C276.388 154.135 276.466 154.089 276.55 154.061C276.634 154.032 276.723 154.019 276.812 154.025C276.901 154.03 276.987 154.053 277.067 154.092L280.844 155.933L284.786 147.846C284.866 147.684 285.006 147.561 285.176 147.502C285.347 147.442 285.533 147.453 285.696 147.53L286.913 148.129C286.994 148.167 287.065 148.222 287.125 148.288C287.184 148.355 287.229 148.432 287.258 148.517C287.287 148.601 287.299 148.69 287.293 148.779C287.288 148.868 287.264 148.955 287.225 149.035L282.393 158.955C282.313 159.116 282.172 159.239 282.002 159.297C281.832 159.355 281.646 159.344 281.483 159.266V159.266Z" fill="#3ACC6C"/>
<path d="M71.962 266.635C71.962 266.635 74.4338 269.868 70.8237 274.747C67.2136 279.626 64.2307 283.749 65.423 286.799C65.423 286.799 70.8736 277.735 75.3063 277.611C79.739 277.486 76.8392 272.088 71.962 266.635Z" fill="#3ACC6C"/>
<path opacity="0.1" d="M71.9619 266.635C72.1783 266.947 72.349 267.289 72.4688 267.649C76.7935 272.736 79.1158 277.482 74.9406 277.623C71.0646 277.731 66.4159 284.663 65.3066 286.413C65.3401 286.554 65.3831 286.693 65.4354 286.828C65.4354 286.828 70.886 277.764 75.3187 277.64C79.7514 277.515 76.8392 272.088 71.9619 266.635Z" fill="black"/>
<path d="M76.5567 270.758C76.5567 271.892 76.4279 272.836 76.27 272.836C76.1122 272.836 75.9875 271.913 75.9875 270.758C75.9875 269.602 76.1454 270.155 76.3033 270.155C76.4611 270.155 76.5567 269.619 76.5567 270.758Z" fill="#FFD037"/>
<path d="M78.1312 272.113C77.1342 272.657 76.2618 272.989 76.187 272.848C76.1122 272.707 76.86 272.158 77.8487 271.601C78.8375 271.044 78.4511 271.452 78.5259 271.601C78.6007 271.751 79.1324 271.568 78.1312 272.113Z" fill="#FFD037"/>
<path d="M58.909 266.635C58.909 266.635 56.4413 269.868 60.0514 274.747C63.6616 279.626 66.6403 283.749 65.4521 286.799C65.4521 286.799 60.0057 277.735 55.5689 277.611C51.132 277.486 54.0318 272.088 58.909 266.635Z" fill="#3ACC6C"/>
<path opacity="0.1" d="M58.9089 266.635C58.6951 266.948 58.5259 267.29 58.4062 267.649C54.0774 272.736 51.7593 277.482 55.9344 277.623C59.8063 277.731 64.455 284.663 65.5684 286.413C65.5335 286.554 65.4891 286.693 65.4354 286.828C65.4354 286.828 59.9891 277.727 55.5439 277.602C51.0987 277.478 54.0317 272.088 58.9089 266.635Z" fill="black"/>
<path d="M54.3184 270.758C54.3184 271.892 54.443 272.836 54.6009 272.836C54.7587 272.836 54.8875 271.913 54.8875 270.758C54.8875 269.602 54.7296 270.155 54.5718 270.155C54.4139 270.155 54.3184 269.619 54.3184 270.758Z" fill="#FFD037"/>
<path d="M52.7397 272.113C53.7409 272.657 54.6092 272.989 54.6839 272.848C54.7587 272.707 54.0109 272.158 53.0222 271.601C52.0334 271.044 52.4156 271.452 52.3409 271.601C52.2661 271.751 51.7426 271.568 52.7397 272.113Z" fill="#FFD037"/>
<path opacity="0.1" d="M65.4396 311.518C79.7084 311.518 91.2756 309.743 91.2756 307.553C91.2756 305.363 79.7084 303.588 65.4396 303.588C51.1708 303.588 39.6036 305.363 39.6036 307.553C39.6036 309.743 51.1708 311.518 65.4396 311.518Z" fill="#A0B3F4"/>
<path d="M78.7336 282.436L78.609 283.445L78.4386 284.871L78.3639 285.465L78.1935 286.891L78.1146 287.485L77.9443 288.91L75.9668 305.118C75.7881 306.564 73.4243 307.694 70.5661 307.694H60.3006C57.4466 307.694 55.0869 306.564 54.9 305.118L52.9225 288.91L52.748 287.485L52.6774 286.891L52.4987 285.465L52.4281 284.871L52.2536 283.445L52.129 282.436C52.0335 281.604 53.3088 280.923 54.9249 280.923H75.9419C77.5621 280.923 78.8375 281.617 78.7336 282.436Z" fill="#65617D"/>
<path d="M78.6131 283.445L78.4386 284.871H52.4364L52.2661 283.445H78.6131Z" fill="#9D9CB5"/>
<path d="M78.368 285.465L78.1935 286.891H52.6857L52.5112 285.465H78.368Z" fill="#9D9CB5"/>
<path d="M78.1188 287.485L77.9443 288.91H52.9308L52.7563 287.485H78.1188Z" fill="#9D9CB5"/>
</g>
<defs>
<linearGradient id="paint0_linear" x1="356.378" y1="293.286" x2="356.378" y2="92.7239" gradientUnits="userSpaceOnUse">
<stop stop-color="#808080" stop-opacity="0.25"/>
<stop offset="0.54" stop-color="#808080" stop-opacity="0.12"/>
<stop offset="1" stop-color="#808080" stop-opacity="0.1"/>
</linearGradient>
<clipPath id="clip0">
<rect width="480" height="331" fill="white"/>
</clipPath>
</defs>
</svg>
