<svg width="623" height="339" viewBox="0 0 623 339" fill="none" xmlns="http://www.w3.org/2000/svg">
<g clip-path="url(#clip0)">
<path d="M313.499 339C482.431 339 619.377 329.928 619.377 318.737C619.377 307.546 482.431 298.474 313.499 298.474C144.567 298.474 7.62134 307.546 7.62134 318.737C7.62134 329.928 144.567 339 313.499 339Z" fill="#F2F2F2"/>
<path d="M301.776 96.9073C251.94 96.9073 216.158 128.902 216.158 203.556C216.158 288.164 251.94 310.56 301.776 310.56C351.611 310.56 389.524 286.031 389.524 203.556C389.524 115.393 351.611 96.9073 301.776 96.9073ZM302.103 282.476C267.586 282.476 249.553 262.212 249.553 203.611C249.553 151.904 268.324 124.636 302.841 124.636C337.359 124.636 356.13 142.547 356.13 203.611C356.13 260.735 336.621 282.476 302.103 282.476Z" fill="#2F2E41"/>
<path d="M186.317 251.548H165.712V190.831C165.712 187.606 164.431 184.513 162.152 182.233C159.874 179.953 156.783 178.671 153.56 178.671H148.732C147.136 178.671 145.556 178.986 144.082 179.597C142.607 180.208 141.268 181.104 140.139 182.233C139.011 183.362 138.116 184.703 137.505 186.178C136.895 187.653 136.58 189.234 136.58 190.831V251.548H78.4606C77.265 251.548 76.0896 251.239 75.0486 250.65C74.0076 250.062 73.1362 249.214 72.5191 248.189C71.902 247.165 71.56 245.998 71.5263 244.802C71.4927 243.606 71.7685 242.421 72.3271 241.364L133.84 124.861C134.607 123.408 135.072 121.815 135.207 120.178C135.341 118.541 135.143 116.893 134.624 115.335C134.105 113.776 133.276 112.339 132.186 111.111C131.097 109.882 129.769 108.887 128.285 108.185L124.654 106.469C121.834 105.137 118.611 104.94 115.65 105.92C112.689 106.899 110.219 108.98 108.748 111.732L33.725 252.171C32.4474 254.563 31.7791 257.233 31.7791 259.944V259.944C31.7791 262.11 32.2052 264.254 33.0333 266.254C33.8614 268.255 35.0751 270.072 36.6051 271.603C38.1352 273.135 39.9516 274.349 41.9508 275.178C43.9499 276.006 46.0925 276.433 48.2563 276.433H136.58V314.826C136.58 316.74 136.957 318.636 137.689 320.404C138.421 322.172 139.494 323.779 140.846 325.133C142.199 326.486 143.805 327.56 145.572 328.292C147.339 329.025 149.233 329.402 151.146 329.402H151.146C153.059 329.402 154.953 329.025 156.72 328.292C158.487 327.56 160.093 326.486 161.445 325.133C162.798 323.779 163.871 322.172 164.603 320.404C165.335 318.636 165.712 316.74 165.712 314.826V276.433H186.317C189.614 276.433 192.777 275.122 195.109 272.789C197.441 270.455 198.751 267.29 198.751 263.99V263.99C198.751 260.691 197.441 257.526 195.109 255.192C192.777 252.859 189.614 251.548 186.317 251.548V251.548Z" fill="#6C63FF"/>
<path d="M567.864 251.548H547.259V190.831C547.259 187.606 545.979 184.513 543.7 182.233C541.421 179.953 538.33 178.671 535.108 178.671H530.279C528.684 178.671 527.104 178.986 525.629 179.597C524.155 180.208 522.815 181.104 521.687 182.233C520.559 183.362 519.664 184.703 519.053 186.178C518.442 187.653 518.128 189.234 518.128 190.831V251.548H460.008C458.813 251.548 457.637 251.239 456.596 250.65C455.555 250.062 454.684 249.214 454.067 248.189C453.45 247.165 453.108 245.998 453.074 244.802C453.04 243.606 453.316 242.421 453.875 241.364L515.388 124.861C516.155 123.408 516.62 121.815 516.754 120.178C516.889 118.541 516.691 116.893 516.172 115.335C515.652 113.776 514.823 112.339 513.734 111.111C512.644 109.882 511.317 108.887 509.833 108.185L506.201 106.469C503.382 105.137 500.158 104.94 497.198 105.92C494.237 106.899 491.766 108.98 490.296 111.732L415.273 252.171C413.995 254.563 413.327 257.233 413.327 259.944V259.944C413.327 264.317 415.063 268.511 418.153 271.603C421.243 274.696 425.434 276.433 429.804 276.433H518.128V314.826C518.128 318.692 519.663 322.399 522.394 325.133C525.126 327.866 528.83 329.402 532.693 329.402V329.402C536.557 329.402 540.261 327.866 542.993 325.133C545.725 322.399 547.259 318.692 547.259 314.826V276.433H567.864C571.162 276.433 574.324 275.122 576.656 272.789C578.988 270.455 580.298 267.29 580.298 263.99V263.99C580.298 260.691 578.988 257.526 576.656 255.192C574.324 252.859 571.162 251.548 567.864 251.548Z" fill="#6C63FF"/>
<path d="M192.001 244.438H171.396V183.721C171.396 182.124 171.081 180.543 170.471 179.068C169.86 177.593 168.965 176.252 167.837 175.123C166.708 173.994 165.369 173.098 163.894 172.487C162.42 171.876 160.84 171.561 159.244 171.561H154.416C151.193 171.561 148.102 172.843 145.824 175.123C143.545 177.403 142.264 180.496 142.264 183.721V244.438H84.1447C82.9491 244.438 81.7737 244.129 80.7327 243.54C79.6917 242.952 78.8203 242.104 78.2032 241.079C77.586 240.055 77.244 238.888 77.2104 237.692C77.1768 236.496 77.4526 235.311 78.0111 234.254L139.524 117.751C140.291 116.298 140.756 114.705 140.891 113.068C141.026 111.431 140.827 109.783 140.308 108.225C139.789 106.666 138.96 105.229 137.87 104.001C136.781 102.772 135.454 101.777 133.969 101.075L130.338 99.3591C127.518 98.0268 124.295 97.83 121.334 98.8096C118.374 99.7892 115.903 101.87 114.433 104.622L39.4091 245.061C38.1315 247.453 37.4631 250.123 37.4631 252.835V252.835C37.4631 257.207 39.1991 261.401 42.2892 264.493C45.3793 267.586 49.5704 269.323 53.9404 269.323H142.264V307.716C142.264 309.63 142.641 311.526 143.373 313.294C144.105 315.062 145.178 316.669 146.531 318.023C147.883 319.376 149.489 320.45 151.256 321.182C153.023 321.915 154.917 322.292 156.83 322.292H156.83C160.693 322.292 164.398 320.756 167.129 318.023C169.861 315.289 171.396 311.582 171.396 307.716V269.323H192.001C193.633 269.323 195.25 269.001 196.759 268.376C198.267 267.75 199.638 266.834 200.793 265.679C201.947 264.523 202.863 263.152 203.488 261.642C204.113 260.132 204.435 258.514 204.435 256.88V256.88C204.435 255.247 204.113 253.629 203.488 252.119C202.863 250.609 201.947 249.238 200.793 248.082C199.638 246.927 198.267 246.011 196.759 245.385C195.25 244.76 193.633 244.438 192.001 244.438V244.438Z" stroke="#3F3D56" stroke-miterlimit="10"/>
<path d="M578.522 244.438H557.917V183.721C557.917 180.496 556.637 177.403 554.358 175.123C552.079 172.843 548.988 171.561 545.765 171.561H540.937C539.341 171.561 537.761 171.876 536.287 172.487C534.813 173.098 533.473 173.994 532.345 175.123C531.216 176.252 530.321 177.593 529.711 179.068C529.1 180.543 528.786 182.124 528.786 183.721V244.438H470.666C469.47 244.438 468.295 244.129 467.254 243.54C466.213 242.952 465.342 242.104 464.724 241.079C464.107 240.055 463.765 238.888 463.732 237.692C463.698 236.496 463.974 235.311 464.532 234.254L526.046 117.751C526.813 116.298 527.277 114.705 527.412 113.068C527.547 111.431 527.349 109.783 526.829 108.225C526.31 106.666 525.481 105.229 524.391 104.001C523.302 102.772 521.975 101.777 520.49 101.075L516.859 99.3591C514.039 98.0268 510.816 97.83 507.855 98.8096C504.895 99.7892 502.424 101.87 500.954 104.622L425.93 245.061C424.653 247.453 423.984 250.123 423.984 252.835C423.984 257.207 425.72 261.401 428.81 264.493C431.901 267.586 436.092 269.323 440.462 269.323H528.786V307.716C528.786 311.582 530.32 315.289 533.052 318.023C535.783 320.756 539.488 322.292 543.351 322.292V322.292C547.214 322.292 550.919 320.756 553.651 318.023C556.382 315.289 557.917 311.582 557.917 307.716V269.323H578.522C580.155 269.323 581.772 269.001 583.28 268.376C584.789 267.75 586.159 266.834 587.314 265.679C588.469 264.523 589.385 263.152 590.009 261.642C590.634 260.132 590.956 258.514 590.956 256.88V256.88C590.956 253.581 589.646 250.416 587.314 248.082C584.982 245.749 581.82 244.438 578.522 244.438V244.438Z" stroke="#3F3D56" stroke-miterlimit="10"/>
<path d="M313.144 90.5084C263.308 90.5084 227.526 122.503 227.526 197.157C227.526 281.765 263.308 304.161 313.144 304.161C362.979 304.161 400.893 279.632 400.893 197.157C400.893 108.994 362.979 90.5084 313.144 90.5084ZM313.471 276.077C278.954 276.077 260.921 255.813 260.921 197.212C260.921 145.505 279.692 118.237 314.21 118.237C348.727 118.237 367.498 136.148 367.498 197.212C367.498 254.336 347.989 276.077 313.471 276.077V276.077Z" stroke="#3F3D56" stroke-miterlimit="10"/>
<path d="M273.197 18.0757C277.329 18.0757 280.678 14.7241 280.678 10.5898C280.678 6.45544 277.329 3.10388 273.197 3.10388C269.066 3.10388 265.716 6.45544 265.716 10.5898C265.716 14.7241 269.066 18.0757 273.197 18.0757Z" fill="#2F2E41"/>
<path d="M291.443 54.4098C303.032 54.4098 312.426 42.2297 312.426 27.2049C312.426 12.18 303.032 0 291.443 0C279.855 0 270.46 12.18 270.46 27.2049C270.46 42.2297 279.855 54.4098 291.443 54.4098Z" fill="#2F2E41"/>
<path opacity="0.1" d="M291.443 46.1936C280.932 46.1936 272.226 36.1723 270.698 23.0968C270.539 24.4604 270.46 25.8321 270.46 27.2049C270.46 42.2298 279.855 54.4098 291.443 54.4098C303.032 54.4098 312.426 42.2298 312.426 27.2049C312.427 25.8321 312.347 24.4604 312.188 23.0968C310.661 36.1723 301.955 46.1936 291.443 46.1936Z" fill="black"/>
<path d="M334.141 106.876C333.691 108.729 331.748 110.213 329.596 111.249C325.072 113.429 319.492 114.08 314.079 114.298C312.698 114.382 311.313 114.356 309.936 114.222C307.268 113.963 304.766 112.812 302.833 110.954C302.695 110.864 302.582 110.74 302.504 110.595C302.427 110.449 302.388 110.287 302.39 110.122C302.393 109.957 302.437 109.796 302.519 109.653C302.601 109.509 302.717 109.389 302.858 109.304C305.74 106.136 310.548 104.194 315.392 102.796C319.065 101.735 325.471 98.9887 329.477 99.3593C333.358 99.7184 334.71 104.536 334.141 106.876Z" fill="#3F3D56"/>
<path opacity="0.1" d="M334.141 106.876C333.691 108.729 331.748 110.213 329.596 111.249C325.072 113.429 319.492 114.08 314.079 114.298C312.698 114.382 311.313 114.356 309.936 114.222C307.268 113.963 304.766 112.812 302.833 110.954C302.695 110.864 302.582 110.74 302.504 110.595C302.427 110.449 302.388 110.287 302.39 110.122C302.393 109.957 302.437 109.796 302.519 109.653C302.601 109.509 302.717 109.389 302.858 109.304C305.74 106.136 310.548 104.194 315.392 102.796C319.065 101.735 325.471 98.9887 329.477 99.3593C333.358 99.7184 334.71 104.536 334.141 106.876Z" fill="black"/>
<path d="M276.62 93.0265C275.239 95.7348 274.989 98.881 275.925 101.774C276.877 104.644 278.659 107.168 281.045 109.025C286.898 113.72 294.954 114.366 302.456 114.301C309.031 114.244 315.596 113.793 322.116 112.953C324.302 112.759 326.449 112.26 328.496 111.47C330.944 110.41 333.096 108.466 333.967 105.943C334.839 103.42 334.22 100.331 332.15 98.6469C330.331 97.1674 327.823 96.9639 325.483 96.8232L312.095 96.0182C313.418 94.6787 315.179 93.9211 316.79 92.9474C318.927 91.6555 320.347 89.4865 321.9 87.5309C324.294 84.6678 326.899 81.9878 329.693 79.5136C330.129 82.0147 331.71 84.0685 333.571 85.7942C335.431 87.5199 337.576 88.9093 339.511 90.5524C344.195 94.5319 347.568 99.9332 352.495 103.608C355.884 102.717 359.052 101.134 361.801 98.9591L359.886 95.4884C359.727 95.1312 359.478 94.821 359.165 94.5874C358.623 94.2538 357.924 94.4257 357.294 94.3313C355.612 94.0788 354.878 92.1356 354.218 90.567C352.406 86.2605 348.936 82.9193 345.973 79.3079C343.786 76.642 341.846 73.7826 340.177 70.765C339.182 68.9653 338.271 67.0914 336.92 65.5409C335.569 63.9904 333.676 62.7713 331.621 62.767C329.804 62.7631 328.129 63.6858 326.568 64.614C321.811 67.441 317.235 70.5608 312.865 73.9554C310.579 75.7319 308.306 77.6089 305.623 78.6983C304.494 79.1569 303.304 79.4703 302.22 80.0284C300.322 81.0057 298.882 82.6594 297.331 84.1273C291.801 89.363 284.229 92.7552 276.62 93.0265Z" fill="#3F3D56"/>
<path d="M304.613 55.7609C304.551 57.3613 304.211 58.9386 303.608 60.4222C303.302 61.1622 302.848 61.8312 302.272 62.3875C301.697 62.9438 301.013 63.3756 300.264 63.6558C299.199 63.9411 298.084 63.9774 297.003 63.7617C296.061 63.6632 295.153 63.3537 294.346 62.8561C293.091 61.9925 292.465 60.4514 292.237 58.9433C292.009 57.437 292.111 55.8978 291.965 54.3806C291.823 53.155 291.59 51.9418 291.268 50.7508C291.17 50.3546 291.069 49.9602 290.971 49.5659C290.874 49.1715 290.779 48.7771 290.692 48.3827C290.611 48.0121 290.537 47.6396 290.473 47.2653C290.42 46.9494 290.372 46.6317 290.338 46.3122C290.306 45.365 290.148 44.4262 289.869 43.5205C289.607 42.9332 289.279 42.3776 288.891 41.8645C288.725 41.6271 288.564 41.3898 288.416 41.1433C287.989 40.5027 287.79 39.7365 287.853 38.9687C287.87 38.8501 287.899 38.7333 287.938 38.62C287.953 38.5762 287.969 38.5324 287.988 38.4904C288.152 38.4458 288.303 38.3618 288.427 38.2456C288.551 38.1295 288.645 37.9847 288.701 37.8239C288.764 37.4785 288.734 37.1226 288.615 36.7923C288.479 36.3308 288.292 35.8857 288.059 35.4649C287.906 35.1874 287.386 34.6871 287.382 34.3694C287.375 33.7304 288.623 33.2155 289.128 32.9635C290.671 32.1905 292.391 31.8414 294.113 31.952C295.217 32.0269 296.414 32.3665 297.023 33.2922C297.571 34.1266 297.497 35.2075 297.731 36.177C297.756 36.3179 297.815 36.4504 297.904 36.5623C298.023 36.6708 298.173 36.7397 298.333 36.7594C298.603 36.8132 298.881 36.8243 299.154 36.7923H299.156C299.228 36.7866 299.3 36.7762 299.371 36.7613C299.798 36.6826 300.201 36.5084 300.55 36.2519C300.776 36.1916 301.004 36.1423 301.234 36.104C301.244 36.103 301.253 36.1012 301.262 36.0985C302.176 38.9851 302.294 42.0799 303.043 45.0195C303.413 46.482 303.944 47.9262 304.019 49.4307C304.024 49.4964 304.026 49.564 304.028 49.6315C304.039 50.1154 304 50.6029 304.021 51.0849C304.027 51.302 304.052 51.5181 304.093 51.7312C304.175 52.0741 304.277 52.4118 304.398 52.7428L304.404 52.7592C304.438 52.8651 304.471 52.9728 304.499 53.0805C304.519 53.1591 304.537 53.2357 304.551 53.3143L304.553 53.3197C304.688 54.1265 304.709 54.9484 304.613 55.7609V55.7609Z" fill="#FBBEBE"/>
<path d="M291.808 36.8818C297.754 36.8818 302.573 32.0589 302.573 26.1094C302.573 20.16 297.754 15.337 291.808 15.337C285.863 15.337 281.043 20.16 281.043 26.1094C281.043 32.0589 285.863 36.8818 291.808 36.8818Z" fill="#FBBEBE"/>
<path d="M360.155 84.8025C359.843 81.8635 358.799 79.0498 357.118 76.6191C357.398 78.2806 357.677 79.9415 357.958 81.6018C357.609 81.7027 357.239 81.6997 356.892 81.593C356.545 81.4863 356.237 81.2806 356.005 81.0011C355.552 80.4347 355.205 79.7908 354.982 79.1004C353.759 76.0623 352.159 73.1897 350.221 70.5501C343.368 69.9786 336.593 67.1358 330.567 63.8219C324.538 60.5098 318.896 56.5386 312.948 53.086C311.917 52.4622 310.843 51.9131 309.733 51.4427C307.872 50.696 305.783 50.3089 304.019 49.4307C303.9 49.3722 303.781 49.3102 303.665 49.2463C303.266 49.0293 302.888 48.7757 302.537 48.4885C302.347 48.3342 302.167 48.1683 301.997 47.9919C301.117 46.9671 300.419 45.7986 299.933 44.5374C298.986 42.4414 298.649 39.9126 297.704 37.8166C298.138 37.4103 298.626 37.0657 299.154 36.7923H299.156C299.233 36.7521 299.309 36.7138 299.388 36.6772C299.762 36.501 300.151 36.3586 300.55 36.2518C300.776 36.1916 301.004 36.1423 301.234 36.1039C301.244 36.103 301.253 36.1012 301.262 36.0984C302.328 35.9246 303.42 36.0111 304.446 36.3504C305.945 36.858 307.21 37.8713 308.471 38.8299C310.519 40.2739 312.484 41.8332 314.355 43.5004C315.395 44.4972 316.344 45.5928 317.462 46.4984C318.392 47.2162 319.372 47.8661 320.394 48.4429C326.447 52.0507 332.5 55.658 338.553 59.2646C340.602 60.4861 342.653 61.7076 344.656 63.0002C347.7 64.9648 350.634 67.0937 353.566 69.2208C355.294 70.4734 357.021 71.7265 358.748 72.9802C359.314 73.3419 359.812 73.8019 360.217 74.3387C360.574 74.9481 360.797 75.6275 360.868 76.3306C361.302 79.1714 361.057 82.0744 360.155 84.8025V84.8025Z" fill="#FBBEBE"/>
<path d="M307.283 63.8621C306.557 67.1212 303.265 69.0913 301.544 71.9542C299.406 75.5072 300.278 79.6373 301.081 83.707C299.614 84.9724 298.146 86.2377 296.678 87.5029C295.868 88.1986 295.058 88.8979 294.186 89.5132C292.914 90.3659 291.585 91.1297 290.208 91.7991C288.909 92.4674 287.61 93.1363 286.311 93.8057C285.103 94.4852 283.823 95.0278 282.495 95.4234C279.935 96.0807 277.217 95.6206 274.684 94.8592C274.386 94.7808 274.098 94.6636 273.83 94.5105C273.672 94.4162 273.535 94.2915 273.425 94.1435C273.176 93.6955 273.085 93.1762 273.168 92.6701C273.425 88.4049 274.467 84.2292 275.505 80.0846C276.06 77.5981 276.806 75.1582 277.737 72.7867C278.649 70.7547 279.699 68.7868 280.877 66.8966C282.177 64.5183 283.718 62.2797 285.475 60.2159C286.33 59.4216 287.05 58.4928 287.606 57.4662C288.254 55.9873 288.004 54.2911 288.135 52.6807C288.236 51.4708 288.557 50.2895 289.082 49.1952V49.1934C289.363 48.6039 289.702 48.0437 290.093 47.5209C290.27 47.9335 290.447 48.3456 290.624 48.757C290.741 49.0272 290.856 49.2968 290.971 49.5659C291.12 49.9128 291.269 50.2585 291.416 50.6029C291.841 51.5925 292.266 52.5815 292.69 53.5699C293.148 54.8148 293.8 55.979 294.624 57.0189C295 57.5514 295.508 57.9772 296.098 58.2546C296.687 58.5321 297.339 58.6517 297.989 58.6019C298.639 58.552 299.264 58.3344 299.805 57.9702C300.346 57.606 300.783 57.1078 301.074 56.5241C301.687 55.4346 302.131 54.2581 302.391 53.0349C302.751 51.5456 302.801 49.998 302.537 48.4886C302.097 45.5819 300.862 42.6131 299.964 39.9127C299.599 39.0123 299.387 38.0569 299.338 37.0863C299.34 36.9772 299.351 36.8685 299.371 36.7613C299.377 36.7339 299.382 36.7047 299.388 36.6773C299.762 36.5011 300.151 36.3587 300.55 36.2519C300.776 36.1916 301.004 36.1423 301.234 36.104C302.024 40.3838 302.816 44.6635 303.608 48.9432C303.626 49.0437 303.646 49.1441 303.665 49.2463C303.778 49.8598 303.893 50.4733 304.02 51.0849C304.135 51.64 304.259 52.1932 304.398 52.7428L304.404 52.7592C304.451 52.9455 304.5 53.1299 304.551 53.3143L304.553 53.3198C304.694 53.8237 304.851 54.324 305.028 54.8169C306.1 57.7876 307.971 60.7783 307.283 63.8621Z" fill="#6C63FF"/>
<path d="M350.972 109.663C350.938 110.291 351.06 110.917 351.326 111.487C352 112.719 353.616 112.999 355.015 113.114C363.187 113.786 371.408 113.536 379.523 112.367C379.964 112.337 380.391 112.204 380.771 111.98C381.925 111.17 381.214 109.197 379.954 108.566C378.694 107.934 377.199 108.086 375.816 107.813C374.443 107.467 373.135 106.899 371.944 106.132C369.14 104.521 366.378 102.84 363.656 101.091C362.035 100.05 360.123 98.9385 358.298 99.5559C353.355 101.229 350.94 104.327 350.972 109.663Z" fill="#3F3D56"/>
<path d="M290.734 48.1545V48.1563C290.721 48.233 290.708 48.3079 290.692 48.3827C290.671 48.5069 290.648 48.6329 290.624 48.757C290.398 49.9164 290.12 51.0703 289.801 52.2169C288.925 55.3848 287.752 58.5015 286.588 61.5725C283.464 69.807 280.34 78.0421 277.215 86.2778C276.427 88.3519 275.64 90.4279 274.744 92.4601C274.445 93.1374 274.137 93.8203 273.83 94.5105C272.732 96.9808 271.677 99.5315 271.327 102.161C271 103.891 270.963 105.664 271.216 107.406C271.566 109.13 272.612 110.813 274.248 111.451C275.047 111.763 276.191 112.181 275.972 113.012C275.854 113.468 275.336 113.691 274.87 113.767C274.256 113.865 273.627 113.827 273.03 113.655C272.432 113.482 271.879 113.181 271.411 112.771C270.537 111.995 269.865 110.788 268.703 110.658C267.899 110.571 267.158 111.053 266.421 111.39C263.414 112.765 259.91 111.803 256.752 110.826C257 109.546 258.285 108.703 259.56 108.447C260.835 108.19 262.155 108.372 263.456 108.338C263.872 108.36 264.286 108.253 264.64 108.033C264.957 107.741 265.18 107.361 265.278 106.941C266.116 104.456 266.74 101.904 267.141 99.3124C267.561 96.6047 267.736 93.855 268.335 91.1802C268.8 89.0932 269.519 87.0721 270.135 85.0235C271.328 80.8055 272.307 76.5301 273.069 72.2135C273.455 70.42 273.731 68.6049 273.896 66.7779C274 65.2625 273.951 63.7398 274.097 62.2298C274.342 60.2653 274.751 58.325 275.321 56.4291C275.879 54.3605 276.437 52.293 276.994 50.2268C277.821 47.1685 278.707 43.9916 280.802 41.6144C281.53 40.7775 282.421 40.099 283.421 39.621C284.422 39.143 285.509 38.8756 286.617 38.8355C287.033 38.8349 287.447 38.8796 287.852 38.9687C287.92 38.9852 287.987 39.0016 288.055 39.0198C288.497 39.1355 288.921 39.3112 289.316 39.542C289.962 39.1312 290.29 39.2755 290.719 39.909C291.095 40.5795 291.272 41.3433 291.23 42.111C291.266 44.137 291.1 46.1616 290.734 48.1545Z" fill="#FBBEBE"/>
<path d="M291.443 50.5754L291.416 50.6028L291.268 50.7507L289.801 52.2169L289.082 49.1951L286.617 38.8353C287.033 38.8348 287.447 38.8795 287.852 38.9686C287.87 38.8499 287.899 38.7332 287.938 38.6199L288.055 39.0197L288.891 41.8644L290.473 47.2652L290.733 48.1544V48.1562L291.443 50.5754Z" fill="#6C63FF"/>
<path d="M300.752 17.5252C300.751 18.4844 300.561 19.4341 300.193 20.3197C299.825 21.2054 299.286 22.0098 298.607 22.687C298.361 22.9334 298.097 23.1616 297.818 23.3695C296.559 24.3194 295.025 24.8334 293.448 24.8342H284.695C282.76 24.8312 280.906 24.0602 279.54 22.6905C278.173 21.3208 277.405 19.4643 277.405 17.5287C277.405 15.5931 278.173 13.7367 279.54 12.367C280.906 10.9973 282.76 10.2263 284.695 10.2233H293.448C295.383 10.2283 297.236 10.999 298.605 12.3671C299.973 13.7352 300.745 15.5895 300.752 17.5252V17.5252Z" fill="#2F2E41"/>
<path d="M308.96 18.0757C313.091 18.0757 316.441 14.7241 316.441 10.5898C316.441 6.45544 313.091 3.10388 308.96 3.10388C304.828 3.10388 301.479 6.45544 301.479 10.5898C301.479 14.7241 304.828 18.0757 308.96 18.0757Z" fill="#2F2E41"/>
<path opacity="0.1" d="M308.777 3.10388C308.685 3.10388 308.594 3.10753 308.503 3.11081C310.439 3.18121 312.271 3.99999 313.615 5.39488C314.959 6.78976 315.711 8.65201 315.711 10.5898C315.711 12.5276 314.959 14.3898 313.615 15.7847C312.271 17.1796 310.439 17.9984 308.503 18.0688C308.594 18.0721 308.685 18.0757 308.777 18.0757C310.761 18.0757 312.664 17.287 314.067 15.8831C315.47 14.4792 316.258 12.5752 316.258 10.5898C316.258 8.60441 315.47 6.70034 314.067 5.29646C312.664 3.89258 310.761 3.10388 308.777 3.10388V3.10388Z" fill="black"/>
<path opacity="0.1" d="M273.197 3.10388C273.289 3.10388 273.38 3.10753 273.471 3.11081C271.536 3.18121 269.703 3.99999 268.359 5.39488C267.015 6.78976 266.264 8.65201 266.264 10.5898C266.264 12.5276 267.015 14.3898 268.359 15.7847C269.703 17.1796 271.536 17.9984 273.471 18.0688C273.38 18.0721 273.289 18.0757 273.197 18.0757C271.214 18.0739 269.313 17.2845 267.912 15.8808C266.51 14.4771 265.723 12.574 265.723 10.5898C265.723 8.60555 266.51 6.70247 267.912 5.29878C269.313 3.89509 271.214 3.10563 273.197 3.10388Z" fill="black"/>
<path opacity="0.1" d="M297.818 23.3695C296.559 24.3193 295.025 24.8334 293.448 24.8341H284.695C283.118 24.8334 281.584 24.3193 280.325 23.3695H297.818Z" fill="black"/>
<path d="M354.346 77.6119C354.346 77.6119 356.232 83.0497 357.958 81.6019L356.582 74.4939L354.346 77.6119Z" fill="#FBBEBE"/>
<path d="M583.843 243.444C585.599 244.083 587.48 244.305 589.337 244.092C591.194 243.88 592.976 243.239 594.544 242.219C596.111 241.2 597.42 239.83 598.368 238.218C599.315 236.606 599.876 234.796 600.006 232.93C600.135 231.065 599.83 229.194 599.114 227.467C598.397 225.739 597.29 224.202 595.879 222.975C594.468 221.749 592.791 220.868 590.981 220.4C589.172 219.933 587.278 219.893 585.45 220.283L585.752 226.499L582.813 221.172C579.929 222.528 577.701 224.974 576.618 227.974C576.234 229.024 576 230.124 575.924 231.24C575.738 233.859 576.411 236.468 577.84 238.67C579.269 240.872 581.377 242.548 583.843 243.444V243.444Z" fill="#57B894"/>
<path d="M598.384 315.536C597.347 310.25 601.842 305.563 606.283 302.517C610.723 299.471 615.911 296.478 617.426 291.308C619.604 283.879 613.118 277.075 608.07 271.208C604.325 266.853 601.108 262.07 598.488 256.958C597.438 254.908 596.473 252.766 596.197 250.479C595.799 247.186 596.856 243.909 597.921 240.767C601.47 230.303 605.264 219.926 609.303 209.637" stroke="#3F3D56" stroke-miterlimit="10"/>
<path d="M584.34 241.843C586.096 242.482 587.977 242.704 589.834 242.492C591.691 242.279 593.473 241.638 595.041 240.619C596.608 239.6 597.917 238.23 598.864 236.618C599.812 235.006 600.373 233.196 600.503 231.33C600.632 229.464 600.327 227.594 599.611 225.866C598.894 224.139 597.787 222.601 596.376 221.375C594.965 220.149 593.288 219.267 591.478 218.8C589.668 218.333 587.775 218.293 585.947 218.683L586.249 224.898L583.31 219.571C580.426 220.927 578.198 223.374 577.115 226.373C576.731 227.424 576.497 228.524 576.421 229.64C576.236 232.259 576.908 234.867 578.337 237.069C579.766 239.271 581.873 240.947 584.34 241.843V241.843Z" stroke="#3F3D56" stroke-miterlimit="10"/>
<path d="M596.909 207.49C597.599 205.587 598.756 203.888 600.274 202.55C601.792 201.211 603.622 200.277 605.596 199.833L606.589 205.742L608.431 199.536C610.989 199.573 613.469 200.424 615.512 201.964C617.556 203.504 619.057 205.654 619.8 208.104C620.542 210.553 620.488 213.176 619.644 215.592C618.8 218.009 617.211 220.094 615.105 221.548C613 223.002 610.487 223.748 607.93 223.68C605.372 223.611 602.903 222.731 600.878 221.167C598.853 219.603 597.378 217.435 596.664 214.977C595.951 212.518 596.037 209.897 596.909 207.49H596.909Z" fill="#57B894"/>
<path d="M597.572 205.357C598.261 203.453 599.418 201.754 600.936 200.416C602.454 199.078 604.285 198.143 606.258 197.699L607.252 203.608L609.094 197.402C611.652 197.44 614.132 198.29 616.175 199.83C618.219 201.37 619.72 203.52 620.463 205.97C621.205 208.42 621.151 211.042 620.307 213.458C619.463 215.875 617.874 217.961 615.768 219.414C613.663 220.868 611.15 221.615 608.592 221.546C606.035 221.478 603.566 220.598 601.541 219.033C599.516 217.469 598.041 215.301 597.327 212.843C596.614 210.385 596.699 207.763 597.572 205.357H597.572Z" stroke="#3F3D56" stroke-miterlimit="10"/>
<path d="M605.951 271.327C608.737 272.339 611.797 272.289 614.549 271.187C617.3 270.086 619.55 268.01 620.87 265.355C622.19 262.7 622.487 259.652 621.706 256.791C620.924 253.931 619.118 251.458 616.632 249.845L615.216 254.614L614.212 248.635C614.203 248.631 614.192 248.627 614.182 248.624C612.692 248.082 611.11 247.839 609.526 247.909C607.942 247.979 606.388 248.361 604.951 249.033C603.515 249.704 602.225 250.653 601.155 251.823C600.085 252.994 599.256 254.364 598.716 255.855C598.175 257.346 597.933 258.93 598.004 260.515C598.075 262.099 598.458 263.655 599.13 265.091C599.802 266.528 600.75 267.819 601.921 268.889C603.091 269.959 604.461 270.787 605.951 271.327H605.951Z" fill="#57B894"/>
<path d="M606.526 269.166C609.311 270.177 612.372 270.127 615.123 269.026C617.874 267.924 620.124 265.848 621.444 263.193C622.764 260.538 623.062 257.49 622.28 254.63C621.498 251.77 619.692 249.297 617.206 247.684L615.791 252.453L614.787 246.474C614.777 246.469 614.767 246.466 614.756 246.463C613.266 245.921 611.684 245.678 610.1 245.748C608.516 245.818 606.962 246.2 605.526 246.872C604.089 247.543 602.799 248.491 601.729 249.662C600.659 250.832 599.83 252.203 599.29 253.694C598.749 255.185 598.507 256.769 598.579 258.353C598.65 259.938 599.032 261.493 599.704 262.93C600.376 264.367 601.324 265.657 602.495 266.727C603.665 267.797 605.035 268.626 606.526 269.166H606.526Z" stroke="#3F3D56" stroke-miterlimit="10"/>
<path d="M593.388 291.382C593.867 294.11 595.268 296.589 597.357 298.405C599.446 300.221 602.096 301.263 604.861 301.356C607.627 301.45 610.341 300.588 612.547 298.917C614.754 297.246 616.319 294.866 616.98 292.177C617.641 289.489 617.358 286.654 616.179 284.149C615 281.644 612.995 279.621 610.502 278.419C608.009 277.217 605.179 276.91 602.486 277.548C599.794 278.187 597.402 279.732 595.713 281.926L601.09 290.024L593.743 285.726C593.174 287.556 593.052 289.496 593.388 291.382V291.382Z" fill="#57B894"/>
<path d="M593.885 289.782C594.364 292.509 595.765 294.989 597.854 296.805C599.943 298.621 602.593 299.663 605.358 299.756C608.124 299.849 610.838 298.988 613.044 297.317C615.251 295.646 616.816 293.266 617.477 290.577C618.138 287.888 617.855 285.054 616.676 282.549C615.497 280.044 613.492 278.021 610.999 276.819C608.506 275.617 605.676 275.31 602.983 275.948C600.291 276.587 597.899 278.132 596.21 280.326L601.587 288.424L594.24 284.126C593.671 285.955 593.549 287.895 593.885 289.782V289.782Z" stroke="#3F3D56" stroke-miterlimit="10"/>
<path d="M5.22315 272.862C6.37725 273.282 7.61302 273.427 8.83307 273.288C10.0531 273.148 11.2241 272.727 12.2537 272.057C13.2833 271.388 14.1434 270.488 14.7661 269.429C15.3889 268.37 15.7573 267.18 15.8424 265.954C15.9275 264.729 15.7268 263.5 15.2563 262.365C14.7858 261.23 14.0583 260.219 13.131 259.414C12.2038 258.608 11.1023 258.029 9.91321 257.722C8.72416 257.415 7.48009 257.389 6.27908 257.645L6.47755 261.729L4.54668 258.229C2.65165 259.12 1.18765 260.727 0.476417 262.698C0.223828 263.388 0.0702723 264.111 0.0203315 264.844C-0.101546 266.565 0.340431 268.278 1.27928 269.725C2.21814 271.172 3.60269 272.273 5.22315 272.862V272.862Z" fill="#57B894"/>
<path d="M14.7772 320.228C14.0956 316.755 17.0491 313.676 19.9665 311.674C22.8838 309.673 26.2926 307.706 27.2881 304.31C28.7186 299.429 24.4574 294.958 21.1407 291.103C18.68 288.242 16.5669 285.1 14.8455 281.741C14.0972 280.422 13.5874 278.981 13.3398 277.484C13.0783 275.32 13.773 273.167 14.4728 271.104C16.8042 264.228 19.2969 257.41 21.9509 250.65" stroke="#3F3D56" stroke-miterlimit="10"/>
<path d="M5.54958 271.81C6.70367 272.23 7.93945 272.376 9.15949 272.237C10.3795 272.097 11.5505 271.676 12.5801 271.006C13.6097 270.336 14.4698 269.436 15.0925 268.377C15.7153 267.318 16.0837 266.129 16.1688 264.903C16.2539 263.677 16.0532 262.448 15.5827 261.313C15.1122 260.178 14.3847 259.168 13.4574 258.362C12.5302 257.557 11.4287 256.978 10.2396 256.671C9.05057 256.364 7.80651 256.337 6.60551 256.593L6.80397 260.677L4.8731 257.177C2.97806 258.068 1.51407 259.676 0.802834 261.646C0.550247 262.337 0.396694 263.059 0.34675 263.793C0.224865 265.513 0.666838 267.227 1.60569 268.674C2.54455 270.121 3.92911 271.222 5.54958 271.81V271.81Z" stroke="#3F3D56" stroke-miterlimit="10"/>
<path d="M13.808 249.24C14.2609 247.989 15.0211 246.873 16.0184 245.994C17.0158 245.115 18.2183 244.501 19.515 244.209L20.1679 248.091L21.3783 244.013C23.0588 244.038 24.688 244.597 26.0305 245.609C27.373 246.621 28.3595 248.033 28.8474 249.643C29.3354 251.252 29.2996 252.975 28.7452 254.563C28.1908 256.151 27.1465 257.521 25.7631 258.476C24.3796 259.431 22.7287 259.922 21.0486 259.877C19.3684 259.832 17.7461 259.254 16.4157 258.226C15.0853 257.198 14.1158 255.774 13.6471 254.159C13.1783 252.543 13.2347 250.821 13.808 249.24V249.24Z" fill="#57B894"/>
<path d="M14.2433 247.838C14.6962 246.588 15.4564 245.471 16.4537 244.592C17.4511 243.713 18.6536 243.099 19.9503 242.807L20.6032 246.689L21.8136 242.612C23.4941 242.637 25.1233 243.195 26.4658 244.207C27.8083 245.219 28.7948 246.632 29.2827 248.241C29.7707 249.85 29.7349 251.573 29.1805 253.161C28.6261 254.749 27.5818 256.119 26.1984 257.074C24.8149 258.029 23.164 258.52 21.4839 258.475C19.8037 258.43 18.1814 257.852 16.851 256.824C15.5206 255.796 14.5511 254.372 14.0824 252.757C13.6136 251.141 13.67 249.419 14.2433 247.838V247.838Z" stroke="#3F3D56" stroke-miterlimit="10"/>
<path d="M19.7487 291.182C21.579 291.846 23.5896 291.814 25.3972 291.09C27.2049 290.366 28.6833 289.002 29.5505 287.258C30.4177 285.513 30.6132 283.511 30.0997 281.631C29.5862 279.752 28.3995 278.128 26.766 277.068L25.8359 280.201L25.1764 276.273C25.1699 276.27 25.1632 276.267 25.1563 276.265C24.1773 275.909 23.1377 275.749 22.097 275.795C21.0563 275.841 20.0348 276.092 19.091 276.533C18.1472 276.974 17.2995 277.597 16.5964 278.367C15.8933 279.136 15.3486 280.036 14.9933 281.016C14.6381 281.996 14.4793 283.036 14.5261 284.078C14.5728 285.119 14.8242 286.141 15.2658 287.085C15.7074 288.029 16.3307 288.877 17.0999 289.58C17.8691 290.283 18.7691 290.827 19.7487 291.182V291.182Z" fill="#57B894"/>
<path d="M20.126 289.762C21.9563 290.426 23.9668 290.393 25.7745 289.67C27.5822 288.946 29.0605 287.582 29.9278 285.838C30.795 284.093 30.9905 282.091 30.477 280.211C29.9634 278.332 28.7768 276.708 27.1433 275.648L26.2132 278.781L25.5537 274.853C25.5472 274.85 25.5405 274.847 25.5335 274.845C24.5548 274.49 23.5156 274.331 22.4754 274.378C21.4353 274.424 20.4145 274.675 19.4713 275.117C17.5665 276.008 16.0935 277.62 15.3764 279.598C14.6593 281.576 14.7568 283.758 15.6476 285.664C16.5383 287.57 18.1492 289.044 20.126 289.762V289.762Z" stroke="#3F3D56" stroke-miterlimit="10"/>
<path d="M11.4941 304.358C11.8088 306.15 12.7297 307.779 14.1022 308.972C15.4748 310.166 17.2156 310.85 19.0327 310.911C20.8498 310.973 22.6326 310.407 24.0823 309.309C25.532 308.211 26.5603 306.647 26.9947 304.881C27.4292 303.114 27.2434 301.252 26.4685 299.606C25.6936 297.96 24.3767 296.631 22.7387 295.841C21.1008 295.052 19.2413 294.85 17.4722 295.269C15.703 295.689 14.1318 296.704 13.0221 298.145L16.5548 303.466L11.7278 300.642C11.3535 301.844 11.2734 303.119 11.4941 304.358V304.358Z" fill="#57B894"/>
<path d="M11.8205 303.307C12.1352 305.099 13.0561 306.728 14.4286 307.921C15.8012 309.114 17.542 309.799 19.3591 309.86C21.1762 309.921 22.9591 309.355 24.4087 308.257C25.8584 307.159 26.8867 305.596 27.3211 303.829C27.7556 302.063 27.5698 300.2 26.7949 298.554C26.02 296.909 24.7031 295.579 23.0652 294.79C21.4272 294 19.5677 293.798 17.7986 294.218C16.0294 294.637 14.4582 295.653 13.3485 297.094L16.8812 302.415L12.0542 299.591C11.6799 300.793 11.5998 302.067 11.8205 303.307V303.307Z" stroke="#3F3D56" stroke-miterlimit="10"/>
<path d="M278.883 197.932C284.327 197.932 288.74 192.217 288.74 185.167C288.74 178.117 284.327 172.401 278.883 172.401C273.439 172.401 269.025 178.117 269.025 185.167C269.025 192.217 273.439 197.932 278.883 197.932Z" fill="#2F2E41"/>
<path d="M332.52 198.222C337.964 198.222 342.378 192.507 342.378 185.457C342.378 178.407 337.964 172.691 332.52 172.691C327.076 172.691 322.662 178.407 322.662 185.457C322.662 192.507 327.076 198.222 332.52 198.222Z" fill="#2F2E41"/>
<path d="M324.982 223.173C324.982 228.941 316.933 233.618 307.006 233.618C297.079 233.618 289.03 228.941 289.03 223.173C289.03 218.177 295.067 213.999 303.133 212.978C304.417 212.809 305.711 212.725 307.006 212.729C309.176 212.722 311.341 212.955 313.46 213.425C320.198 214.928 324.982 218.728 324.982 223.173Z" fill="#2F2E41"/>
<path d="M281.202 195.031C286.646 195.031 291.06 189.316 291.06 182.265C291.06 175.215 286.646 169.5 281.202 169.5C275.758 169.5 271.344 175.215 271.344 182.265C271.344 189.316 275.758 195.031 281.202 195.031Z" stroke="#3F3D56" stroke-miterlimit="10"/>
<path d="M334.839 195.321C340.284 195.321 344.697 189.606 344.697 182.556C344.697 175.505 340.284 169.79 334.839 169.79C329.395 169.79 324.982 175.505 324.982 182.556C324.982 189.606 329.395 195.321 334.839 195.321Z" stroke="#3F3D56" stroke-miterlimit="10"/>
<path d="M309.326 230.716C319.253 230.716 327.301 226.04 327.301 220.272C327.301 214.504 319.253 209.827 309.326 209.827C299.398 209.827 291.35 214.504 291.35 220.272C291.35 226.04 299.398 230.716 309.326 230.716Z" stroke="#3F3D56" stroke-miterlimit="10"/>
<path d="M313.675 214.295C313.679 215.025 313.406 215.729 312.909 216.263C312.675 216.52 312.39 216.724 312.073 216.865C311.755 217.006 311.412 217.079 311.065 217.08H305.267C304.552 217.056 303.876 216.749 303.388 216.227C302.899 215.705 302.636 215.01 302.657 214.295C302.654 213.73 302.82 213.176 303.133 212.705C304.416 212.524 305.71 212.435 307.006 212.439C309.179 212.431 311.345 212.681 313.46 213.181C313.603 213.535 313.676 213.914 313.675 214.295V214.295Z" fill="white"/>
<path d="M281.202 181.685C282.803 181.685 284.101 180.386 284.101 178.784C284.101 177.182 282.803 175.883 281.202 175.883C279.601 175.883 278.303 177.182 278.303 178.784C278.303 180.386 279.601 181.685 281.202 181.685Z" fill="white"/>
<path d="M335.129 181.685C336.731 181.685 338.029 180.386 338.029 178.784C338.029 177.182 336.731 175.883 335.129 175.883C333.528 175.883 332.23 177.182 332.23 178.784C332.23 180.386 333.528 181.685 335.129 181.685Z" fill="white"/>
<path opacity="0.3" d="M338.029 208.957C339.63 208.957 340.928 207.658 340.928 206.056C340.928 204.453 339.63 203.155 338.029 203.155C336.427 203.155 335.129 204.453 335.129 206.056C335.129 207.658 336.427 208.957 338.029 208.957Z" fill="#6C63FF"/>
<path opacity="0.3" d="M267.286 208.957C268.887 208.957 270.185 207.658 270.185 206.056C270.185 204.453 268.887 203.155 267.286 203.155C265.684 203.155 264.386 204.453 264.386 206.056C264.386 207.658 265.684 208.957 267.286 208.957Z" fill="#6C63FF"/>
</g>
<defs>
<clipPath id="clip0">
<rect width="623" height="339" fill="white"/>
</clipPath>
</defs>
</svg>
