<svg width="20" height="20" viewBox="0 0 20 20" fill="none" xmlns="http://www.w3.org/2000/svg">
<g clip-path="url(#clip0)">
<path d="M18.7979 8.59619C18.716 8.58291 18.6332 8.57678 18.5504 8.57786H4.44076L4.74842 8.43476C5.04915 8.29242 5.32274 8.0987 5.55693 7.86236L9.51361 3.90567C10.0347 3.40823 10.1223 2.60799 9.72111 2.00961C9.2542 1.37197 8.3588 1.23353 7.72112 1.70043C7.6696 1.73817 7.62064 1.77931 7.57462 1.82359L0.419678 8.97853C-0.139481 9.53707 -0.139972 10.4431 0.41856 11.0023C0.418918 11.0026 0.419321 11.003 0.419678 11.0034L7.57462 18.1583C8.13423 18.7164 9.04027 18.7151 9.59835 18.1555C9.64227 18.1115 9.68327 18.0646 9.72111 18.0152C10.1223 17.4169 10.0347 16.6166 9.51361 16.1192L5.56408 12.1553C5.35413 11.9452 5.11274 11.7689 4.84859 11.633L4.41929 11.4398H18.4716C19.2026 11.467 19.844 10.9563 19.9813 10.2378C20.1078 9.45769 19.578 8.72274 18.7979 8.59619Z" fill="#A0B3F4"/>
</g>
<defs>
<clipPath id="clip0">
<rect width="20" height="20" fill="white"/>
</clipPath>
</defs>
</svg>
