<svg width="20" height="20" viewBox="0 0 20 20" fill="none" xmlns="http://www.w3.org/2000/svg">
<g clip-path="url(#clip0)">
<path d="M12.7587 7.24603C12.5 7.24603 12.2903 7.4557 12.2903 7.71441V16.5668C12.2903 16.8254 12.5 17.0352 12.7587 17.0352C13.0174 17.0352 13.227 16.8254 13.227 16.5668V7.71441C13.227 7.4557 13.0174 7.24603 12.7587 7.24603Z" fill="#EC608F"/>
<path d="M7.23175 7.24603C6.97304 7.24603 6.76337 7.4557 6.76337 7.71441V16.5668C6.76337 16.8254 6.97304 17.0352 7.23175 17.0352C7.49046 17.0352 7.70013 16.8254 7.70013 16.5668V7.71441C7.70013 7.4557 7.49046 7.24603 7.23175 7.24603Z" fill="#EC608F"/>
<path d="M3.2037 5.95406V17.494C3.2037 18.1761 3.45381 18.8167 3.89072 19.2763C4.32562 19.7371 4.93086 19.9988 5.56427 19.9999H14.4262C15.0598 19.9988 15.6651 19.7371 16.0998 19.2763C16.5367 18.8167 16.7868 18.1761 16.7868 17.494V5.95406C17.6553 5.72353 18.2181 4.88446 18.1019 3.99325C17.9856 3.10223 17.2265 2.4357 16.3277 2.43551H13.9297V1.85004C13.9324 1.35769 13.7377 0.884911 13.3892 0.537101C13.0406 0.189473 12.5671 -0.00410095 12.0748 -7.57874e-05H7.9157C7.42335 -0.00410095 6.94984 0.189473 6.6013 0.537101C6.25276 0.884911 6.05809 1.35769 6.06083 1.85004V2.43551H3.66275C2.76404 2.4357 2.00493 3.10223 1.88857 3.99325C1.77238 4.88446 2.33518 5.72353 3.2037 5.95406ZM14.4262 19.0631H5.56427C4.76345 19.0631 4.14046 18.3752 4.14046 17.494V5.99522H15.85V17.494C15.85 18.3752 15.227 19.0631 14.4262 19.0631ZM6.9976 1.85004C6.99449 1.60615 7.09036 1.37141 7.26344 1.19924C7.43634 1.02707 7.67163 0.932482 7.9157 0.93669H12.0748C12.3189 0.932482 12.5542 1.02707 12.7271 1.19924C12.9001 1.37122 12.996 1.60615 12.9929 1.85004V2.43551H6.9976V1.85004ZM3.66275 3.37228H16.3277C16.7934 3.37228 17.1708 3.74973 17.1708 4.21537C17.1708 4.68101 16.7934 5.05846 16.3277 5.05846H3.66275C3.19711 5.05846 2.81966 4.68101 2.81966 4.21537C2.81966 3.74973 3.19711 3.37228 3.66275 3.37228Z" fill="#EC608F"/>
<path d="M9.99524 7.24603C9.73653 7.24603 9.52686 7.4557 9.52686 7.71441V16.5668C9.52686 16.8254 9.73653 17.0352 9.99524 17.0352C10.2539 17.0352 10.4636 16.8254 10.4636 16.5668V7.71441C10.4636 7.4557 10.2539 7.24603 9.99524 7.24603Z" fill="#EC608F"/>
</g>
<defs>
<clipPath id="clip0">
<rect width="20" height="20" fill="white"/>
</clipPath>
</defs>
</svg>
