<svg width="40" height="40" viewBox="0 0 40 40" fill="none" xmlns="http://www.w3.org/2000/svg">
<circle cx="20" cy="20" r="19" stroke="#A0B3F4" stroke-width="2"/>
<g clip-path="url(#clip0)">
<path d="M29.9966 14.9435C29.9857 14.833 29.9427 14.7221 29.8671 14.6299C29.838 14.5942 30.1364 14.895 25.4138 10.1724C25.3013 10.0599 25.1485 10.0008 24.9993 10.0008C24.644 10.0008 12.1115 10.0008 11.7575 10.0008C10.7883 10.0008 9.99973 10.7893 9.99973 11.7586V28.2427C9.99973 29.212 10.7883 30.0005 11.7575 30.0005H28.2417C29.2109 30.0005 29.9995 29.212 29.9995 28.2427C29.9995 14.0169 30.0011 14.9884 29.9966 14.9435ZM23.4761 11.1727V15.0007C23.4761 15.3238 23.2133 15.5867 22.8902 15.5867H22.148V11.1727H23.4761ZM20.9762 11.1727V15.5867H15.5466C15.2235 15.5867 14.9606 15.3238 14.9606 15.0007V11.1727H20.9762ZM23.4761 22.5397H14.9606V21.7975C14.9606 21.4744 15.2235 21.2116 15.5466 21.2116H22.8902C23.2133 21.2116 23.4761 21.4744 23.4761 21.7975V22.5397ZM14.9606 28.8287V23.7115H23.4761V28.8287H14.9606ZM28.8276 28.2427C28.8276 28.5658 28.5648 28.8287 28.2417 28.8287H24.648C24.648 28.0648 24.648 22.6683 24.648 21.7975C24.648 20.8283 23.8595 20.0397 22.8902 20.0397H15.5466C14.5773 20.0397 13.7888 20.8283 13.7888 21.7975V28.8287H11.7576C11.4345 28.8287 11.1716 28.5658 11.1716 28.2427V11.7586C11.1716 11.4355 11.4345 11.1727 11.7576 11.1727H13.7888V15.0007C13.7888 15.97 14.5773 16.7585 15.5466 16.7585H22.8902C23.8595 16.7585 24.648 15.97 24.648 15.0007V11.1727H24.7569L28.8276 15.2435V28.2427Z" fill="#A0B3F4"/>
</g>
<defs>
<clipPath id="clip0">
<rect width="20" height="20" fill="white" transform="translate(10 10)"/>
</clipPath>
</defs>
</svg>
